<?xml version="1.0" encoding="utf-8"?>
<!-- Generator: Adobe Illustrator 16.0.0, SVG Export Plug-In . SVG Version: 6.00 Build 0)  -->
<!DOCTYPE svg PUBLIC "-//W3C//DTD SVG 1.1//EN" "http://www.w3.org/Graphics/SVG/1.1/DTD/svg11.dtd">
<svg version="1.1" xmlns="http://www.w3.org/2000/svg" xmlns:xlink="http://www.w3.org/1999/xlink" x="0px" y="0px" width="1000px"
	 height="1000px" viewBox="0 0 1000 1000" style="enable-background:new 0 0 1000 1000;" xml:space="preserve">
<g id="Layer_5">
	<rect x="-60.2" y="-71.3" style="fill:#8CBFDC;" width="1120.4" height="1142.5"/>
</g>
<g id="Layer_3">
	<g>
		<g>
			<path style="fill:#FFFFFF;" d="M4.2,215.2C4.3,215.2,4.3,215.2,4.2,215.2c0-0.4,0-0.8,0-1.2c0-22.4,18.2-40.6,40.6-40.6
				c12.3,0,23.3,5.5,30.8,14.1c6.1-9.9,17.1-16.4,29.6-16.4c17.9,0,32.6,13.4,34.6,30.8c4.3-1.9,9.1-2.9,14.2-2.9
				c13.9,0,26,7.9,32,19.5c2.6-4.9,4-10.6,4-16.5c0-19.9-16.1-36-36-36c-5,0-9.8,1-14.2,2.9c-2-17.3-16.7-30.8-34.6-30.8
				c-12.5,0-23.4,6.6-29.6,16.4c-7.4-8.6-18.5-14.1-30.8-14.1c-22.4,0-40.6,18.2-40.6,40.6c0,0.4,0,0.8,0,1.2c0,0,0,0,0,0
				c-25.6,0-46.4,20.8-46.4,46.4c0,5.8,1.1,11.4,3,16.5C-32.5,227.6-15.6,215.2,4.2,215.2z"/>
			<path style="fill:#E8F0F6;" d="M4.2,275c7.6,0,14.7-1.8,21-5c6.5,14.6,21.1,24.8,38.2,24.8c16.1,0,30-9.1,37-22.4
				c6.4,10,17.6,16.6,30.3,16.6c19.9,0,36-16.1,36-36c0-5.8-1.4-11.3-3.9-16.2c10-2.6,18.4-9.4,23.1-18.4c-6-11.6-18-19.5-32-19.5
				c-5,0-9.8,1-14.2,2.9c-2-17.3-16.7-30.8-34.6-30.8c-12.5,0-23.4,6.6-29.6,16.4c-7.4-8.6-18.5-14.1-30.8-14.1
				c-22.4,0-40.6,18.2-40.6,40.6c0,0.4,0,0.8,0,1.2c0,0,0,0,0,0c-19.8,0-36.7,12.4-43.4,29.9C-32.5,262.6-15.6,275,4.2,275z"/>
			<path style="fill:#A1D2F0;" d="M64.7,300.5c-16.7,0-32-9-40.2-23.4c-6,2.4-12.4,3.7-19,3.7c-28.1,0-50.9-22.8-50.9-50.9
				c0-26.6,20.5-48.5,46.5-50.7c1.6-23.4,21.2-42,45-42c11.3,0,22,4.2,30.3,11.7c7.4-8.9,18.3-14,30.1-14c18.1,0,33.6,12.3,38,29.3
				c3.5-1,7.1-1.4,10.7-1.4c22.3,0,40.5,18.2,40.5,40.5c0,16.8-10.3,31.6-25.5,37.6c1.5,4.3,2.3,8.8,2.3,13.4
				c0,22.3-18.2,40.5-40.5,40.5c-11.5,0-22.3-4.8-29.9-13.2C93.5,293.4,79.7,300.5,64.7,300.5z M26.5,266.7c0.5,0,1,0.1,1.5,0.3
				c1.2,0.4,2.1,1.3,2.6,2.4c6,13.4,19.4,22.1,34.1,22.1c13.9,0,26.6-7.7,33-20c0.7-1.4,2.2-2.3,3.8-2.4c1.6-0.1,3.1,0.7,4,2.1
				c5.8,9.1,15.7,14.5,26.5,14.5c17.4,0,31.5-14.1,31.5-31.5c0-5-1.1-9.7-3.4-14.2c-0.6-1.2-0.6-2.6-0.1-3.9c0.6-1.2,1.7-2.2,3-2.5
				c13.9-3.6,23.7-16.1,23.7-30.5c0-17.4-14.1-31.5-31.5-31.5c-4.3,0-8.5,0.9-12.4,2.5c-1.3,0.6-2.8,0.5-4-0.2
				c-1.2-0.7-2.1-2-2.2-3.4c-1.8-15.3-14.7-26.8-30.1-26.8c-10.5,0-20.2,5.4-25.8,14.3c-0.8,1.2-2,2-3.5,2.1
				c-1.4,0.1-2.8-0.5-3.8-1.5c-6.9-8-16.9-12.6-27.4-12.6c-19.9,0-36.1,16.2-36.1,36.1c0,0.2,0,0.5,0,0.7l0,0.4
				c0,1.2-0.4,2.4-1.3,3.3c-0.8,0.9-2,1.4-3.2,1.4c0,0-0.1,0-0.1,0c-23.1,0-41.9,18.8-41.9,41.9c0,23.1,18.8,41.9,41.9,41.9
				c6.7,0,13.1-1.5,19-4.6C25.1,266.9,25.8,266.7,26.5,266.7z"/>
		</g>
		<g>
			<path style="fill:#FFFFFF;" d="M95.8,42.1c5-14.8,19-25.5,35.5-25.5c20.7,0,37.5,16.8,37.5,37.5c0,2-0.2,4-0.5,5.9
				c3.1-0.7,6.2-1.1,9.5-1.1c17,0,31.6,10.3,38,24.9c2.2-5.1,3.4-10.6,3.4-16.5c0-22.9-18.5-41.4-41.4-41.4c-3.3,0-6.5,0.4-9.5,1.1
				c0.3-1.9,0.5-3.9,0.5-5.9c0-20.7-16.8-37.5-37.5-37.5c-16.5,0-30.5,10.7-35.5,25.5c-17.5,4-30.6,19.8-30.6,38.5
				c0,5.9,1.3,11.5,3.6,16.5C73.8,53.1,83.7,44.8,95.8,42.1z"/>
			<path style="fill:#E8F0F6;" d="M66.7,80.7c0,21,17,38,38,38c3.9,0,7.7-0.6,11.3-1.7c5.5,6.4,13.7,10.5,22.8,10.5
				c13.1,0,24.2-8.4,28.3-20.1c3.4,0.9,7,1.4,10.8,1.4c17,0,31.6-10.3,38-24.9c-6.4-14.7-21-24.9-38-24.9c-3.3,0-6.5,0.4-9.5,1.1
				c0.3-1.9,0.5-3.9,0.5-5.9c0-20.7-16.8-37.5-37.5-37.5c-16.5,0-30.5,10.7-35.5,25.5c-12,2.8-22,11-27,22c0.3,0.6,0.6,1.3,0.9,1.9
				C67.8,70.5,66.7,75.5,66.7,80.7z"/>
			<path style="fill:#A1D2F0;" d="M138.8,131.9c-9.1,0-17.8-3.6-24.2-9.9c-3.2,0.8-6.5,1.2-9.9,1.2c-23.4,0-42.5-19.1-42.5-42.5
				c0-5,0.9-9.8,2.5-14.5c-2.7-5.8-4.1-12.2-4.1-18.6c0-19.8,12.9-36.9,31.7-42.3c6.4-15.8,21.8-26.2,38.9-26.2
				c23.2,0,42,18.9,42,42c0,0.2,0,0.3,0,0.5c1.5-0.2,3-0.2,4.6-0.2c25.3,0,45.9,20.6,45.9,45.9s-20.6,45.9-45.9,45.9
				c-2.7,0-5.4-0.2-8.1-0.7C164.1,124.3,152.1,131.9,138.8,131.9z M116,112.4c1.3,0,2.5,0.6,3.4,1.6c4.9,5.7,11.9,8.9,19.4,8.9
				c10.8,0,20.5-6.9,24.1-17.1c0.8-2.2,3.1-3.5,5.4-2.9c3.1,0.8,6.4,1.3,9.6,1.3c20.4,0,36.9-16.6,36.9-36.9s-16.6-36.9-36.9-36.9
				c-2.8,0-5.7,0.3-8.5,1c-1.5,0.3-3-0.1-4.1-1.1c-1.1-1-1.6-2.5-1.4-4c0.3-1.7,0.4-3.5,0.4-5.2c0-18.2-14.8-33-33-33
				c-14.2,0-26.7,9-31.3,22.4c-0.5,1.5-1.7,2.6-3.2,2.9c-16,3.7-27.1,17.7-27.1,34.1c0,5.7,1.4,11.2,4,16.3c0.6,1.2,0.7,2.6,0.2,3.8
				c-1.7,4.1-2.6,8.5-2.6,12.9c0,18.5,15,33.5,33.5,33.5c3.4,0,6.8-0.5,10-1.5C115.1,112.5,115.5,112.4,116,112.4z"/>
		</g>
		<g>
			<path style="fill:#FFFFFF;" d="M260.7,65.7c10.1,0,18.8,6.1,22.6,14.9c2.4-3.8,3.8-8.3,3.8-13.2c0-13.6-11-24.6-24.6-24.6
				c-13.6,0-24.6,11-24.6,24.6c0,3.5,0.7,6.7,2,9.7C244.3,70.2,252,65.7,260.7,65.7z"/>
			<path style="fill:#E8F0F6;" d="M262.5,91.9c8.7,0,16.4-4.6,20.8-11.4c-3.8-8.7-12.5-14.9-22.6-14.9c-8.7,0-16.4,4.6-20.8,11.4
				C243.7,85.8,252.4,91.9,262.5,91.9z"/>
			<path style="fill:#A1D2F0;" d="M262.5,96.4c-16,0-29.1-13-29.1-29.1s13.1-29.1,29.1-29.1c16,0,29.1,13,29.1,29.1
				S278.6,96.4,262.5,96.4z M262.5,47.2c-11.1,0-20.1,9-20.1,20.1s9,20.1,20.1,20.1c11.1,0,20.1-9,20.1-20.1S273.6,47.2,262.5,47.2z
				"/>
		</g>
		<g>
			<path style="fill:#FFFFFF;" d="M-3.5,85.2c3.7,0,7.2,1,10.3,2.8c3-1.8,6.5-2.8,10.3-2.8c6.6,0,12.5,3.2,16.3,8
				c2.7-3.5,4.3-7.8,4.3-12.5c0-11.3-9.2-20.5-20.5-20.5c-3.7,0-7.2,1-10.3,2.8c-3-1.8-6.5-2.8-10.3-2.8c-11.3,0-20.5,9.2-20.5,20.5
				c0,4.7,1.6,9.1,4.3,12.5C-16,88.3-10.1,85.2-3.5,85.2z"/>
			<path style="fill:#E8F0F6;" d="M-3.5,101.2c3.7,0,7.2-1,10.3-2.8c3,1.8,6.5,2.8,10.3,2.8c6.6,0,12.5-3.2,16.3-8
				c-3.8-4.9-9.6-8-16.3-8c-3.7,0-7.2,1-10.3,2.8c-3-1.8-6.5-2.8-10.3-2.8c-6.6,0-12.5,3.2-16.3,8C-16,98.1-10.1,101.2-3.5,101.2z"
				/>
			<path style="fill:#A1D2F0;" d="M17,105.7c-3.5,0-7-0.8-10.3-2.2c-3.2,1.5-6.7,2.2-10.3,2.2c-13.8,0-25-11.2-25-25
				c0-13.8,11.2-25,25-25c3.5,0,7,0.8,10.3,2.2c3.2-1.5,6.7-2.2,10.3-2.2c13.8,0,25,11.2,25,25C42.1,94.5,30.8,105.7,17,105.7z
				 M6.8,93.9c0.8,0,1.6,0.2,2.3,0.6c2.4,1.4,5.2,2.2,8,2.2c8.8,0,16-7.2,16-16s-7.2-16-16-16c-2.8,0-5.6,0.7-8,2.2
				c-1.4,0.8-3.1,0.8-4.5,0c-2.4-1.4-5.2-2.2-8-2.2c-8.8,0-16,7.2-16,16s7.2,16,16,16c2.8,0,5.6-0.7,8-2.2C5.2,94.1,6,93.9,6.8,93.9
				z"/>
		</g>
		<g>
			<path style="fill:#FFFFFF;" d="M234.1,226.2c-0.2-1.4-0.4-2.8-0.4-4.3c0-14.2,11.6-25.8,25.8-25.8c3.4,0,6.5,0.7,9.5,1.8
				c3.5-25.1,25-44.5,51.1-44.5c25.4,0,46.5,18.3,50.8,42.5c6.8-10.7,18.7-17.8,32.2-17.8c21.1,0,38.1,17.1,38.1,38.1
				c0,3.8-0.6,7.4-1.6,10.9c5.7,1.8,10.7,5.5,14.2,10.2c3.4-4.6,5.4-10.3,5.4-16.5c0-12.5-8.2-23.1-19.5-26.7
				c1-3.4,1.6-7.1,1.6-10.9c0-21.1-17.1-38.1-38.1-38.1c-13.6,0-25.5,7.1-32.2,17.8c-4.3-24.2-25.4-42.5-50.8-42.5
				c-26.1,0-47.6,19.3-51.1,44.5c-2.9-1.2-6.1-1.8-9.5-1.8c-14.3,0-25.8,11.6-25.8,25.8c0,1.5,0.1,2.9,0.4,4.3
				c-9.6,5.5-16.1,15.9-16.1,27.7c0,6,1.7,11.7,4.6,16.5C225.4,232.8,229.4,228.9,234.1,226.2z"/>
			<path style="fill:#E8F0F6;" d="M250,252.9h141.4c9,0,17.1-3.7,22.9-9.7c4.7,3.6,10.6,5.7,16.9,5.7c9.3,0,17.6-4.5,22.7-11.5
				c-3.5-4.8-8.4-8.4-14.2-10.2c1-3.4,1.6-7.1,1.6-10.9c0-21.1-17.1-38.1-38.1-38.1c-13.6,0-25.5,7.1-32.2,17.8
				c-4.3-24.2-25.4-42.5-50.8-42.5c-26.1,0-47.6,19.3-51.1,44.5c-2.9-1.2-6.1-1.8-9.5-1.8c-14.3,0-25.8,11.6-25.8,25.8
				c0,1.5,0.1,2.9,0.4,4.3c-4.7,2.7-8.7,6.6-11.5,11.2C228.2,246.7,238.4,252.9,250,252.9z"/>
			<path style="fill:#A1D2F0;" d="M392.6,258.7H251.3c-20.1,0-36.5-16.4-36.5-36.5c0-12,6-23.2,15.8-30c0-0.7-0.1-1.3-0.1-2
				c0-16.7,13.6-30.3,30.3-30.3c2,0,4,0.2,6,0.6c5.9-25,28.5-43.2,54.6-43.2c24.1,0,45,15.2,52.8,37.2c7.9-8,18.7-12.5,30.2-12.5
				c23.5,0,42.6,19.1,42.6,42.6c0,2.7-0.3,5.4-0.8,8.1c11.4,5.3,18.7,16.7,18.7,29.5c0,17.9-14.6,32.5-32.5,32.5
				c-5.9,0-11.5-1.6-16.5-4.5C409.4,255.7,401.3,258.7,392.6,258.7z M260.8,168.9c-11.7,0-21.3,9.6-21.3,21.3c0,1.1,0.1,2.2,0.3,3.5
				c0.3,1.9-0.6,3.7-2.2,4.6c-8.5,4.9-13.8,14-13.8,23.8c0,15.1,12.3,27.5,27.5,27.5h141.4c7.5,0,14.4-2.9,19.7-8.3
				c1.6-1.6,4.1-1.8,5.9-0.4c4.1,3.2,9.1,4.8,14.2,4.8c13,0,23.5-10.6,23.5-23.5c0-10.3-6.6-19.3-16.4-22.4c-2.3-0.7-3.6-3.2-3-5.6
				c0.9-3.1,1.4-6.4,1.4-9.6c0-18.6-15.1-33.6-33.6-33.6c-11.6,0-22.2,5.9-28.4,15.7c-1,1.6-2.9,2.4-4.7,2c-1.8-0.4-3.2-1.8-3.6-3.6
				c-4-22.5-23.5-38.8-46.4-38.8c-23.4,0-43.4,17.4-46.6,40.6c-0.2,1.4-1,2.6-2.2,3.3c-1.2,0.7-2.6,0.8-3.9,0.3
				C266.1,169.5,263.5,168.9,260.8,168.9z"/>
		</g>
		<g>
			<path style="fill:#FFFFFF;" d="M330.1,82.7c0-14.9,12.1-26.9,26.9-26.9c7.8,0,14.8,3.3,19.8,8.6c-0.6-2.8-1-5.7-1-8.6
				c0-21.2,17.2-38.3,38.3-38.3c14.5,0,27,8,33.6,19.8c2.8-0.9,5.8-1.5,8.9-1.5c13.1,0,24.1,9.1,27,21.3c2.6-1.1,5.5-1.7,8.5-1.7
				c10.3,0,19,7.1,21.4,16.7c0.2,0,0.4,0,0.6,0c5.6,0,10.7,2.1,14.6,5.5c4.6-4,7.4-9.9,7.4-16.5c0-12.2-9.9-22-22-22
				c-0.2,0-0.4,0-0.6,0c-2.4-9.6-11-16.7-21.4-16.7c-3,0-5.9,0.6-8.5,1.7c-2.9-12.2-13.9-21.3-27-21.3c-3.1,0-6.1,0.5-8.9,1.5
				c-6.5-11.8-19.1-19.8-33.6-19.8c-21.2,0-38.3,17.2-38.3,38.3c0,3,0.3,5.9,1,8.6c-4.9-5.3-11.9-8.6-19.8-8.6
				c-14.9,0-26.9,12.1-26.9,26.9c0,2.4,0.3,4.8,0.9,7.1c-8.3,2-14.4,9.4-14.4,18.2c0,7.1,4,13.3,9.9,16.5c1.4-0.8,2.9-1.4,4.6-1.7
				C330.4,87.5,330.1,85.2,330.1,82.7z"/>
			<path style="fill:#E8F0F6;" d="M354.1,76.5C354.1,76.5,354.2,76.5,354.1,76.5c4.1,9.4,13.3,15.9,24.1,15.9
				c7.6,0,14.4-3.2,19.2-8.4c5.8,8.7,15.7,14.5,26.9,14.5c13.2,0,24.6-8,29.6-19.4c4.5,3.1,9.9,4.9,15.7,4.9
				c10.4,0,19.5-5.7,24.2-14.2c3.4,7.9,11.2,13.4,20.3,13.4c5.6,0,10.7-2.1,14.6-5.5c-3.9-3.4-9-5.5-14.6-5.5c-0.2,0-0.4,0-0.6,0
				c-2.4-9.6-11-16.7-21.4-16.7c-3,0-5.9,0.6-8.5,1.7c-2.9-12.2-13.9-21.3-27-21.3c-3.1,0-6.1,0.5-8.9,1.5
				c-6.5-11.8-19.1-19.8-33.6-19.8c-21.2,0-38.3,17.2-38.3,38.3c0,3,0.3,5.9,1,8.6c-4.9-5.3-11.9-8.6-19.8-8.6
				c-14.9,0-26.9,12.1-26.9,26.9c0,2.4,0.3,4.8,0.9,7.1c-1.6,0.4-3.1,1-4.6,1.7c2.7,1.4,5.7,2.2,8.9,2.2
				C345.3,93.8,353.3,86.1,354.1,76.5z"/>
			<path style="fill:#A1D2F0;" d="M425.6,104.3c-10.6,0-20.6-4.6-27.5-12.4c-5.3,4-11.8,6.3-18.6,6.3c-8.9,0-17.1-3.8-22.8-10.2
				c-4.1,6.9-11.6,11.5-20,11.5c-12.8,0-23.3-10.4-23.3-23.3c0-9.3,5.5-17.5,13.7-21.2c-0.2-1.4-0.3-2.7-0.3-4.1
				c0-17.3,14.1-31.4,31.4-31.4c5,0,9.9,1.2,14.3,3.4c0.6-23.1,19.6-41.8,42.8-41.8c14.4,0,27.7,7.2,35.6,19.1
				c2.2-0.5,4.5-0.7,6.8-0.7c13.4,0,25.1,8.1,29.9,20.2c1.8-0.4,3.7-0.6,5.6-0.6c11.1,0,20.8,6.8,24.7,16.9
				c13.4,1.3,23.8,12.7,23.8,26.4c0,14.6-11.9,26.5-26.5,26.5c-8.1,0-15.6-3.7-20.6-9.8c-6,6.7-14.7,10.6-23.9,10.6
				c-4.9,0-9.6-1.1-13.9-3.1C450.4,97.5,438.6,104.3,425.6,104.3z M398.7,80.8c0.1,0,0.2,0,0.4,0c1.4,0.1,2.6,0.9,3.4,2
				c5.2,7.8,13.8,12.5,23.2,12.5c11.1,0,21-6.6,25.4-16.7c0.5-1.2,1.6-2.2,2.9-2.5c1.3-0.4,2.7-0.1,3.8,0.6
				c3.9,2.7,8.4,4.1,13.2,4.1c8.4,0,16.2-4.6,20.3-11.9c0.8-1.5,2.4-2.4,4.2-2.3c1.7,0.1,3.2,1.1,3.9,2.7
				c2.8,6.5,9.1,10.6,16.1,10.6c9.7,0,17.5-7.9,17.5-17.5s-7.9-17.5-17.5-17.5c-0.1,0-0.2,0-0.3,0l-0.2,0c-2.1,0.1-4-1.4-4.5-3.4
				c-1.9-7.8-8.9-13.3-17-13.3c-2.3,0-4.6,0.5-6.8,1.4c-1.2,0.5-2.6,0.5-3.8-0.1c-1.2-0.6-2-1.7-2.3-3
				c-2.5-10.5-11.8-17.8-22.6-17.8c-2.5,0-5,0.4-7.4,1.2c-2.1,0.7-4.3-0.2-5.4-2.1c-6-10.8-17.3-17.5-29.6-17.5
				c-18.7,0-33.8,15.2-33.8,33.8c0,2.5,0.3,5.1,0.9,7.6c0.5,2-0.5,4-2.3,5c-1.8,1-4,0.6-5.4-0.9c-4.2-4.6-10.2-7.2-16.4-7.2
				c-12.4,0-22.4,10.1-22.4,22.4c0,2,0.3,4,0.8,5.9c0.3,1.2,0.1,2.4-0.5,3.5c-0.6,1-1.6,1.8-2.8,2.1c-6.4,1.5-10.9,7.2-10.9,13.9
				c0,7.9,6.4,14.3,14.3,14.3c7.4,0,13.6-5.8,14.2-13.1c0.1-1.2,0.7-2.3,1.6-3.1c0.9-0.8,2.2-1.1,3.4-1c0,0,0.1,0,0.2,0
				c1.6,0.2,2.9,1.2,3.6,2.7c3.4,8,11.2,13.2,19.9,13.2c6,0,11.8-2.5,15.9-7C396.2,81.3,397.4,80.8,398.7,80.8z"/>
		</g>
		<g>
			<g>
				<path style="fill:#FFFFFF;" d="M528.6,173.8c6,0,11.5,1.8,16.2,4.8c6.3-11.2,18.3-18.8,32.2-18.8c4,0,7.8,0.6,11.3,1.8
					c0-0.7-0.1-1.4-0.1-2c0-24.3,19.7-44,44-44c10.3,0,19.8,3.6,27.4,9.6c0-0.1,0-0.3,0-0.4c0-32.5,26.4-58.9,58.9-58.9
					s58.9,26.4,58.9,58.9c0,1.8-0.1,3.5-0.2,5.3c0.1,0,0.2,0,0.2,0c13.5,0,25.6,5.3,34.6,14c3.5-1.1,7.2-1.7,11.1-1.7
					c15,0,27.9,8.7,34,21.3c2.4-5,3.8-10.6,3.8-16.5c0-20.9-16.9-37.8-37.8-37.8c-3.9,0-7.6,0.6-11.1,1.7c-9-8.6-21.2-14-34.6-14
					c-0.1,0-0.2,0-0.2,0c0.2-1.7,0.2-3.5,0.2-5.3c0-32.5-26.4-58.9-58.9-58.9S659.6,59,659.6,91.5c0,0.1,0,0.3,0,0.4
					c-7.5-6-17-9.6-27.4-9.6c-24.3,0-44,19.7-44,44c0,0.7,0.1,1.4,0.1,2c-3.6-1.2-7.4-1.8-11.3-1.8c-13.8,0-25.8,7.6-32.2,18.8
					c-4.7-3-10.2-4.8-16.2-4.8c-16.5,0-29.9,13.4-29.9,29.9c0,6.1,1.8,11.8,5,16.5C509.1,179.1,518.2,173.8,528.6,173.8z"/>
				<path style="fill:#E8F0F6;" d="M528.6,200.5c9.1,0,17.2-4.1,22.7-10.4c6.6,6.4,15.7,10.4,25.7,10.4c14.1,0,26.4-7.9,32.6-19.6
					c6.4,12.9,19.7,21.8,35.1,21.8c16.8,0,31.1-10.6,36.7-25.4c3.2,17.7,18.6,31.1,37.2,31.1c14,0,26.1-7.6,32.7-18.9
					c7.6,4.7,16.6,7.5,26.2,7.5c13.5,0,25.6-5.3,34.6-14c3.5,1.1,7.2,1.7,11.1,1.7c15,0,27.9-8.7,34-21.3c-6.1-12.6-19-21.3-34-21.3
					c-3.9,0-7.6,0.6-11.1,1.7c-9-8.6-21.2-14-34.6-14c-0.1,0-0.2,0-0.2,0c0.2-1.7,0.2-3.5,0.2-5.3c0-32.5-26.4-58.9-58.9-58.9
					s-58.9,26.4-58.9,58.9c0,0.1,0,0.3,0,0.4c-7.5-6-17-9.6-27.4-9.6c-24.3,0-44,19.7-44,44c0,0.7,0.1,1.4,0.1,2
					c-3.6-1.2-7.4-1.8-11.3-1.8c-13.8,0-25.8,7.6-32.2,18.8c-4.7-3-10.2-4.8-16.2-4.8c-10.4,0-19.6,5.3-24.9,13.4
					C509.1,195.2,518.2,200.5,528.6,200.5z"/>
			</g>
			<path style="fill:#A1D2F0;" d="M719.7,214.2c-16.7,0-31.3-9.7-38.2-24.1c-8.1,11.4-21.3,18.5-35.6,18.5
				c-14.2,0-27.1-6.7-35.3-17.9c-7.8,9.8-19.6,15.6-32.4,15.6c-9.3,0-18.2-3.1-25.4-8.8c-6.3,5.6-14.4,8.8-22.9,8.8
				c-19,0-34.4-15.4-34.4-34.4s15.4-34.4,34.4-34.4c5.1,0,10.1,1.1,14.7,3.3c7.7-10.8,20.3-17.4,33.7-17.4c2.3,0,4.6,0.2,6.9,0.6
				C587,99,608,79.2,633.5,79.2c8.3,0,16.2,2,23.3,6c3.8-31.3,30.6-55.7,62.9-55.7c35,0,63.4,28.4,63.4,63.4c0,0.3,0,0.6,0,1
				c11.6,1,22.5,5.6,31.4,13.3c3.2-0.8,6.5-1.2,9.9-1.2c23.3,0,42.3,19,42.3,42.3c0,23.3-19,42.3-42.3,42.3c-3.3,0-6.6-0.4-9.9-1.2
				c-10,8.7-22.6,13.5-35.8,13.5c-8.6,0-17.1-2.1-24.7-6C745.9,207.6,733.2,214.2,719.7,214.2z M682.5,174.1c0.1,0,0.3,0,0.4,0
				c2,0.2,3.7,1.7,4,3.7c2.8,15.9,16.6,27.4,32.7,27.4c11.8,0,22.8-6.4,28.8-16.6c0.6-1.1,1.6-1.8,2.8-2.1c1.2-0.3,2.4-0.1,3.5,0.5
				c7.2,4.4,15.5,6.8,23.8,6.8c11.8,0,23-4.5,31.5-12.7c1.2-1.1,2.9-1.5,4.4-1.1c3.2,1,6.4,1.5,9.7,1.5c18.4,0,33.3-14.9,33.3-33.3
				c0-18.4-14.9-33.3-33.3-33.3c-3.3,0-6.6,0.5-9.7,1.5c-1.6,0.5-3.3,0.1-4.4-1.1c-8.5-8.2-19.7-12.7-31.4-12.7c-0.1,0-0.2,0-0.3,0
				c-1.3,0-2.5-0.5-3.4-1.4c-0.9-0.9-1.3-2.2-1.2-3.5c0.2-1.8,0.2-3.4,0.2-4.9c0-30-24.4-54.4-54.4-54.4c-30,0-54.4,24.4-54.4,54.4
				l0,0.4c0,1.7-1,3.3-2.5,4.1c-1.6,0.8-3.4,0.6-4.8-0.5c-7.1-5.6-15.6-8.6-24.6-8.6c-21.8,0-39.5,17.7-39.5,39.5c0,0.3,0,0.7,0,1
				c0,0.3,0,0.6,0,0.8c0.1,1.5-0.6,2.9-1.8,3.8c-1.2,0.9-2.7,1.2-4.1,0.7c-3.2-1-6.6-1.6-9.9-1.6c-11.7,0-22.5,6.3-28.2,16.5
				c-0.6,1.1-1.6,1.9-2.8,2.2c-1.2,0.3-2.5,0.1-3.5-0.6c-4.1-2.7-8.9-4.1-13.7-4.1c-14,0-25.4,11.4-25.4,25.4s11.4,25.4,25.4,25.4
				c7.4,0,14.4-3.2,19.2-8.9c0.8-0.9,2-1.5,3.2-1.6c1.2-0.1,2.4,0.4,3.3,1.3c6.1,5.9,14.1,9.2,22.5,9.2c12,0,22.9-6.6,28.6-17.2
				c0.8-1.5,2.3-2.4,4-2.4c0,0,0,0,0.1,0c1.7,0,3.2,1,4,2.5c5.9,11.9,17.8,19.3,31.1,19.3c14.4,0,27.4-9.1,32.4-22.5
				C679,175.3,680.7,174.1,682.5,174.1z"/>
		</g>
	</g>
	<g>
		<path style="fill:#FFFFFF;" d="M1004.2,215.2C1004.3,215.2,1004.3,215.2,1004.2,215.2c0-0.4,0-0.8,0-1.2
			c0-22.4,18.2-40.6,40.6-40.6c12.3,0,23.3,5.5,30.8,14.1c6.1-9.9,17.1-16.4,29.6-16.4c17.9,0,32.6,13.4,34.6,30.8
			c4.3-1.9,9.1-2.9,14.2-2.9c13.9,0,26,7.9,32,19.5c2.6-4.9,4-10.6,4-16.5c0-19.9-16.1-36-36-36c-5,0-9.8,1-14.2,2.9
			c-2-17.3-16.7-30.8-34.6-30.8c-12.5,0-23.4,6.6-29.6,16.4c-7.4-8.6-18.5-14.1-30.8-14.1c-22.4,0-40.6,18.2-40.6,40.6
			c0,0.4,0,0.8,0,1.2c0,0,0,0,0,0c-25.6,0-46.4,20.8-46.4,46.4c0,5.8,1.1,11.4,3,16.5C967.5,227.6,984.4,215.2,1004.2,215.2z"/>
		<path style="fill:#E8F0F6;" d="M1004.2,275c7.6,0,14.7-1.8,21-5c6.5,14.6,21.1,24.8,38.2,24.8c16.1,0,30-9.1,37-22.4
			c6.4,10,17.6,16.6,30.3,16.6c19.9,0,36-16.1,36-36c0-5.8-1.4-11.3-3.9-16.2c10-2.6,18.4-9.4,23.1-18.4c-6-11.6-18-19.5-32-19.5
			c-5,0-9.8,1-14.2,2.9c-2-17.3-16.7-30.8-34.6-30.8c-12.5,0-23.4,6.6-29.6,16.4c-7.4-8.6-18.5-14.1-30.8-14.1
			c-22.4,0-40.6,18.2-40.6,40.6c0,0.4,0,0.8,0,1.2c0,0,0,0,0,0c-19.8,0-36.7,12.4-43.4,29.9C967.5,262.6,984.4,275,1004.2,275z"/>
		<path style="fill:#A1D2F0;" d="M1064.7,300.5c-16.7,0-32-9-40.2-23.4c-6,2.4-12.4,3.7-19,3.7c-28.1,0-50.9-22.8-50.9-50.9
			c0-26.6,20.5-48.5,46.5-50.7c1.6-23.4,21.2-42,45-42c11.3,0,22,4.2,30.3,11.7c7.4-8.9,18.3-14,30.1-14c18.1,0,33.6,12.3,38,29.3
			c3.5-1,7.1-1.4,10.7-1.4c22.3,0,40.5,18.2,40.5,40.5c0,16.8-10.3,31.6-25.5,37.6c1.5,4.3,2.3,8.8,2.3,13.4
			c0,22.3-18.2,40.5-40.5,40.5c-11.5,0-22.3-4.8-29.9-13.2C1093.5,293.4,1079.7,300.5,1064.7,300.5z M1026.5,266.7
			c0.5,0,1,0.1,1.5,0.3c1.2,0.4,2.1,1.3,2.6,2.4c6,13.4,19.4,22.1,34.1,22.1c13.9,0,26.6-7.7,33-20c0.7-1.4,2.2-2.3,3.8-2.4
			c1.6-0.1,3.1,0.7,4,2.1c5.8,9.1,15.7,14.5,26.5,14.5c17.4,0,31.5-14.1,31.5-31.5c0-5-1.1-9.7-3.4-14.2c-0.6-1.2-0.6-2.6-0.1-3.9
			c0.6-1.2,1.7-2.2,3-2.5c13.9-3.6,23.7-16.1,23.7-30.5c0-17.4-14.1-31.5-31.5-31.5c-4.3,0-8.5,0.9-12.4,2.5c-1.3,0.6-2.8,0.5-4-0.2
			c-1.2-0.7-2.1-2-2.2-3.4c-1.8-15.3-14.7-26.8-30.1-26.8c-10.5,0-20.2,5.4-25.8,14.3c-0.8,1.2-2,2-3.5,2.1
			c-1.4,0.1-2.8-0.5-3.8-1.5c-6.9-8-16.9-12.6-27.4-12.6c-19.9,0-36.1,16.2-36.1,36.1c0,0.2,0,0.5,0,0.7l0,0.4
			c0,1.2-0.4,2.4-1.3,3.3c-0.8,0.9-2,1.4-3.2,1.4c0,0-0.1,0-0.1,0c-23.1,0-41.9,18.8-41.9,41.9c0,23.1,18.8,41.9,41.9,41.9
			c6.7,0,13.1-1.5,19-4.6C1025.1,266.9,1025.8,266.7,1026.5,266.7z"/>
	</g>
	<g>
		<path style="fill:#FFFFFF;" d="M878.4,56.3c10.1,0,18.8,6.1,22.6,14.9c2.4-3.8,3.8-8.3,3.8-13.2c0-13.6-11-24.6-24.6-24.6
			c-13.6,0-24.6,11-24.6,24.6c0,3.5,0.7,6.7,2,9.7C862,60.9,869.7,56.3,878.4,56.3z"/>
		<path style="fill:#E8F0F6;" d="M880.2,82.6c8.7,0,16.4-4.6,20.8-11.4c-3.8-8.7-12.5-14.9-22.6-14.9c-8.7,0-16.4,4.6-20.8,11.4
			C861.4,76.4,870.1,82.6,880.2,82.6z"/>
		<path style="fill:#A1D2F0;" d="M880.2,87.1c-16,0-29.1-13-29.1-29.1s13-29.1,29.1-29.1c16,0,29.1,13,29.1,29.1
			S896.3,87.1,880.2,87.1z M880.2,37.9c-11.1,0-20.1,9-20.1,20.1s9,20.1,20.1,20.1c11.1,0,20.1-9,20.1-20.1S891.3,37.9,880.2,37.9z"
			/>
	</g>
	<g>
		<path style="fill:#FFFFFF;" d="M996.5,85.2c3.7,0,7.2,1,10.3,2.8c3-1.8,6.5-2.8,10.3-2.8c6.6,0,12.5,3.2,16.3,8
			c2.7-3.5,4.3-7.8,4.3-12.5c0-11.3-9.2-20.5-20.5-20.5c-3.7,0-7.2,1-10.3,2.8c-3-1.8-6.5-2.8-10.3-2.8c-11.3,0-20.5,9.2-20.5,20.5
			c0,4.7,1.6,9.1,4.3,12.5C984,88.3,989.9,85.2,996.5,85.2z"/>
		<path style="fill:#E8F0F6;" d="M996.5,101.2c3.7,0,7.2-1,10.3-2.8c3,1.8,6.5,2.8,10.3,2.8c6.6,0,12.5-3.2,16.3-8
			c-3.8-4.9-9.6-8-16.3-8c-3.7,0-7.2,1-10.3,2.8c-3-1.8-6.5-2.8-10.3-2.8c-6.6,0-12.5,3.2-16.3,8C984,98.1,989.9,101.2,996.5,101.2z
			"/>
		<path style="fill:#A1D2F0;" d="M1017,105.7c-3.5,0-7-0.8-10.3-2.2c-3.2,1.5-6.7,2.2-10.3,2.2c-13.8,0-25-11.2-25-25
			c0-13.8,11.2-25,25-25c3.5,0,7,0.8,10.3,2.2c3.2-1.5,6.7-2.2,10.3-2.2c13.8,0,25,11.2,25,25C1042.1,94.5,1030.8,105.7,1017,105.7z
			 M1006.8,93.9c0.8,0,1.6,0.2,2.3,0.6c2.4,1.4,5.2,2.2,8,2.2c8.8,0,16-7.2,16-16s-7.2-16-16-16c-2.8,0-5.6,0.7-8,2.2
			c-1.4,0.8-3.1,0.8-4.5,0c-2.4-1.4-5.2-2.2-8-2.2c-8.8,0-16,7.2-16,16s7.2,16,16,16c2.8,0,5.6-0.7,8-2.2
			C1005.2,94.1,1006,93.9,1006.8,93.9z"/>
	</g>
	<g>
		<path style="fill:#FFFFFF;" d="M95.8,1042.1c5-14.8,19-25.5,35.5-25.5c20.7,0,37.5,16.8,37.5,37.5c0,2-0.2,4-0.5,5.9
			c3.1-0.7,6.2-1.1,9.5-1.1c17,0,31.6,10.3,38,24.9c2.2-5.1,3.4-10.6,3.4-16.5c0-22.9-18.5-41.4-41.4-41.4c-3.3,0-6.5,0.4-9.5,1.1
			c0.3-1.9,0.5-3.9,0.5-5.9c0-20.7-16.8-37.5-37.5-37.5c-16.5,0-30.5,10.7-35.5,25.5c-17.5,4-30.6,19.8-30.6,38.5
			c0,5.9,1.3,11.5,3.6,16.5C73.8,1053.1,83.7,1044.8,95.8,1042.1z"/>
		<path style="fill:#A1D2F0;" d="M138.8,1131.9c-9.1,0-17.8-3.6-24.2-9.9c-3.2,0.8-6.5,1.2-9.9,1.2c-23.4,0-42.5-19.1-42.5-42.5
			c0-5,0.9-9.8,2.5-14.5c-2.7-5.8-4.1-12.2-4.1-18.6c0-19.8,12.9-36.9,31.7-42.3c6.4-15.8,21.8-26.2,38.9-26.2c23.2,0,42,18.9,42,42
			c0,0.2,0,0.3,0,0.5c1.5-0.2,3-0.2,4.6-0.2c25.3,0,45.9,20.6,45.9,45.9s-20.6,45.9-45.9,45.9c-2.7,0-5.4-0.2-8.1-0.7
			C164.1,1124.3,152.1,1131.9,138.8,1131.9z M116,1112.4c1.3,0,2.5,0.6,3.4,1.6c4.9,5.7,11.9,8.9,19.4,8.9
			c10.8,0,20.5-6.9,24.1-17.1c0.8-2.2,3.1-3.5,5.4-2.9c3.1,0.8,6.4,1.3,9.6,1.3c20.4,0,36.9-16.6,36.9-36.9s-16.6-36.9-36.9-36.9
			c-2.8,0-5.7,0.3-8.5,1c-1.5,0.3-3-0.1-4.1-1.1c-1.1-1-1.6-2.5-1.4-4c0.3-1.7,0.4-3.5,0.4-5.2c0-18.2-14.8-33-33-33
			c-14.2,0-26.7,9-31.3,22.4c-0.5,1.5-1.7,2.6-3.2,2.9c-16,3.7-27.1,17.7-27.1,34.1c0,5.7,1.4,11.2,4,16.3c0.6,1.2,0.7,2.6,0.2,3.8
			c-1.7,4.1-2.6,8.5-2.6,12.9c0,18.5,15,33.5,33.5,33.5c3.4,0,6.8-0.5,10-1.5C115.1,1112.5,115.5,1112.4,116,1112.4z"/>
	</g>
	<g>
		<path style="fill:#FFFFFF;" d="M244.3,963.6c3.7,0,7.2,1,10.3,2.8c3-1.8,6.5-2.8,10.3-2.8c6.6,0,12.5,3.2,16.3,8
			c2.7-3.5,4.3-7.8,4.3-12.5c0-11.3-9.2-20.5-20.5-20.5c-3.7,0-7.2,1-10.3,2.8c-3-1.8-6.5-2.8-10.3-2.8c-11.3,0-20.5,9.2-20.5,20.5
			c0,4.7,1.6,9.1,4.3,12.5C231.8,966.7,237.7,963.6,244.3,963.6z"/>
		<path style="fill:#E8F0F6;" d="M244.3,979.6c3.7,0,7.2-1,10.3-2.8c3,1.8,6.5,2.8,10.3,2.8c6.6,0,12.5-3.2,16.3-8
			c-3.8-4.9-9.6-8-16.3-8c-3.7,0-7.2,1-10.3,2.8c-3-1.8-6.5-2.8-10.3-2.8c-6.6,0-12.5,3.2-16.3,8
			C231.8,976.5,237.7,979.6,244.3,979.6z"/>
		<path style="fill:#A1D2F0;" d="M264.9,984.1c-3.5,0-7-0.8-10.3-2.2c-3.2,1.5-6.7,2.2-10.3,2.2c-13.8,0-25-11.2-25-25
			c0-13.8,11.2-25,25-25c3.5,0,7,0.8,10.3,2.2c3.2-1.5,6.7-2.2,10.3-2.2c13.8,0,25,11.2,25,25C289.9,972.9,278.7,984.1,264.9,984.1z
			 M254.6,972.4c0.8,0,1.6,0.2,2.3,0.6c2.4,1.4,5.2,2.2,8,2.2c8.8,0,16-7.2,16-16s-7.2-16-16-16c-2.8,0-5.6,0.7-8,2.2
			c-1.4,0.8-3.1,0.8-4.5,0c-2.4-1.4-5.2-2.2-8-2.2c-8.8,0-16,7.2-16,16s7.2,16,16,16c2.8,0,5.6-0.7,8-2.2
			C253.1,972.6,253.8,972.4,254.6,972.4z"/>
	</g>
	<g>
		<path style="fill:#FFFFFF;" d="M330.1,1082.7c0-14.9,12.1-26.9,26.9-26.9c7.8,0,14.8,3.3,19.8,8.6c-0.6-2.8-1-5.7-1-8.6
			c0-21.2,17.2-38.3,38.3-38.3c14.5,0,27,8,33.6,19.8c2.8-0.9,5.8-1.5,8.9-1.5c13.1,0,24.1,9.1,27,21.3c2.6-1.1,5.5-1.7,8.5-1.7
			c10.3,0,19,7.1,21.4,16.7c0.2,0,0.4,0,0.6,0c5.6,0,10.7,2.1,14.6,5.5c4.6-4,7.4-9.9,7.4-16.5c0-12.2-9.9-22-22-22
			c-0.2,0-0.4,0-0.6,0c-2.4-9.6-11-16.7-21.4-16.7c-3,0-5.9,0.6-8.5,1.7c-2.9-12.2-13.9-21.3-27-21.3c-3.1,0-6.1,0.5-8.9,1.5
			c-6.5-11.8-19.1-19.8-33.6-19.8c-21.2,0-38.3,17.2-38.3,38.3c0,3,0.3,5.9,1,8.6c-4.9-5.3-11.9-8.6-19.8-8.6
			c-14.9,0-26.9,12.1-26.9,26.9c0,2.4,0.3,4.8,0.9,7.1c-8.3,2-14.4,9.4-14.4,18.2c0,7.1,4,13.3,9.9,16.5c1.4-0.8,2.9-1.4,4.6-1.7
			C330.4,1087.5,330.1,1085.2,330.1,1082.7z"/>
		<path style="fill:#A1D2F0;" d="M425.6,1104.3c-10.6,0-20.6-4.6-27.5-12.4c-5.3,4-11.8,6.3-18.6,6.3c-8.9,0-17.1-3.8-22.8-10.2
			c-4.1,6.9-11.6,11.5-20,11.5c-12.8,0-23.3-10.4-23.3-23.3c0-9.3,5.5-17.5,13.7-21.2c-0.2-1.4-0.3-2.7-0.3-4.1
			c0-17.3,14.1-31.4,31.4-31.4c5,0,9.9,1.2,14.3,3.4c0.6-23.1,19.6-41.8,42.8-41.8c14.4,0,27.7,7.2,35.6,19.1
			c2.2-0.5,4.5-0.7,6.8-0.7c13.4,0,25.1,8.1,29.9,20.2c1.8-0.4,3.7-0.6,5.6-0.6c11.1,0,20.8,6.8,24.7,16.9
			c13.4,1.3,23.8,12.7,23.8,26.4c0,14.6-11.9,26.5-26.5,26.5c-8.1,0-15.6-3.7-20.6-9.8c-6,6.7-14.7,10.6-23.9,10.6
			c-4.9,0-9.6-1.1-13.9-3.1C450.4,1097.5,438.6,1104.3,425.6,1104.3z M398.7,1080.8c0.1,0,0.2,0,0.4,0c1.4,0.1,2.6,0.9,3.4,2
			c5.2,7.8,13.8,12.5,23.2,12.5c11.1,0,21-6.6,25.4-16.7c0.5-1.2,1.6-2.2,2.9-2.5c1.3-0.4,2.7-0.1,3.8,0.6c3.9,2.7,8.4,4.1,13.2,4.1
			c8.4,0,16.2-4.6,20.3-11.9c0.8-1.5,2.4-2.4,4.2-2.3c1.7,0.1,3.2,1.1,3.9,2.7c2.8,6.5,9.1,10.6,16.1,10.6c9.7,0,17.5-7.9,17.5-17.5
			s-7.9-17.5-17.5-17.5c-0.1,0-0.2,0-0.3,0l-0.2,0c-2.1,0.1-4-1.4-4.5-3.4c-1.9-7.8-8.9-13.3-17-13.3c-2.3,0-4.6,0.5-6.8,1.4
			c-1.2,0.5-2.6,0.5-3.8-0.1c-1.2-0.6-2-1.7-2.3-3c-2.5-10.5-11.8-17.8-22.6-17.8c-2.5,0-5,0.4-7.4,1.2c-2.1,0.7-4.3-0.2-5.4-2.1
			c-6-10.8-17.3-17.5-29.6-17.5c-18.7,0-33.8,15.2-33.8,33.8c0,2.5,0.3,5.1,0.9,7.6c0.5,2-0.5,4-2.3,5c-1.8,1-4,0.6-5.4-0.9
			c-4.2-4.6-10.2-7.2-16.4-7.2c-12.4,0-22.4,10.1-22.4,22.4c0,2,0.3,4,0.8,5.9c0.3,1.2,0.1,2.4-0.5,3.5c-0.6,1-1.6,1.8-2.8,2.1
			c-6.4,1.5-10.9,7.2-10.9,13.9c0,7.9,6.4,14.3,14.3,14.3c7.4,0,13.6-5.8,14.2-13.1c0.1-1.2,0.7-2.3,1.6-3.1c0.9-0.8,2.2-1.1,3.4-1
			c0,0,0.1,0,0.2,0c1.6,0.2,2.9,1.2,3.6,2.7c3.4,8,11.2,13.2,19.9,13.2c6,0,11.8-2.5,15.9-7C396.2,1081.3,397.4,1080.8,398.7,1080.8
			z"/>
	</g>
	<g>
		<path style="fill:#FFFFFF;" d="M124.8,633.1C124.8,633.1,124.8,633.1,124.8,633.1c0-0.4,0-0.8,0-1.2c0-22.4,18.2-40.6,40.6-40.6
			c12.3,0,23.3,5.5,30.8,14.1c6.1-9.9,17.1-16.4,29.6-16.4c17.9,0,32.6,13.4,34.6,30.8c4.3-1.9,9.1-2.9,14.2-2.9
			c13.9,0,26,7.9,32,19.5c2.6-4.9,4-10.6,4-16.5c0-19.9-16.1-36-36-36c-5,0-9.8,1-14.2,2.9c-2-17.3-16.7-30.8-34.6-30.8
			c-12.5,0-23.4,6.6-29.6,16.4c-7.4-8.6-18.5-14.1-30.8-14.1c-22.4,0-40.6,18.2-40.6,40.6c0,0.4,0,0.8,0,1.2c0,0,0,0,0,0
			c-25.6,0-46.4,20.8-46.4,46.4c0,5.8,1.1,11.4,3,16.5C88.1,645.5,105,633.1,124.8,633.1z"/>
		<path style="fill:#E8F0F6;" d="M124.8,692.9c7.6,0,14.7-1.8,21-5c6.5,14.6,21.1,24.8,38.2,24.8c16.1,0,30-9.1,37-22.4
			c6.4,10,17.6,16.6,30.3,16.6c19.9,0,36-16.1,36-36c0-5.8-1.4-11.3-3.9-16.2c10-2.6,18.4-9.4,23.1-18.4c-6-11.6-18-19.5-32-19.5
			c-5,0-9.8,1-14.2,2.9c-2-17.3-16.7-30.8-34.6-30.8c-12.5,0-23.4,6.6-29.6,16.4c-7.4-8.6-18.5-14.1-30.8-14.1
			c-22.4,0-40.6,18.2-40.6,40.6c0,0.4,0,0.8,0,1.2c0,0,0,0,0,0c-19.8,0-36.7,12.4-43.4,29.9C88.1,680.5,105,692.9,124.8,692.9z"/>
		<path style="fill:#A1D2F0;" d="M185.3,718.4c-16.7,0-32-9-40.2-23.4c-6,2.4-12.4,3.7-19,3.7c-28.1,0-50.9-22.8-50.9-50.9
			c0-26.6,20.5-48.5,46.5-50.7c1.6-23.4,21.2-42,45-42c11.3,0,22,4.2,30.3,11.7c7.4-8.9,18.3-14,30.1-14c18.1,0,33.6,12.3,38,29.3
			c3.5-1,7.1-1.4,10.7-1.4c22.3,0,40.5,18.2,40.5,40.5c0,16.8-10.3,31.6-25.5,37.6c1.5,4.3,2.3,8.8,2.3,13.4
			c0,22.3-18.2,40.5-40.5,40.5c-11.5,0-22.3-4.8-29.9-13.2C214,711.3,200.2,718.4,185.3,718.4z M147.1,684.7c0.5,0,1,0.1,1.5,0.3
			c1.2,0.4,2.1,1.3,2.6,2.4c6,13.4,19.4,22.1,34.1,22.1c13.9,0,26.6-7.7,33-20c0.7-1.4,2.2-2.3,3.8-2.4c1.6-0.1,3.1,0.7,4,2.1
			c5.8,9.1,15.7,14.5,26.5,14.5c17.4,0,31.5-14.1,31.5-31.5c0-5-1.1-9.7-3.4-14.2c-0.6-1.2-0.6-2.7-0.1-3.9c0.6-1.2,1.7-2.2,3-2.5
			c13.9-3.6,23.7-16.1,23.7-30.5c0-17.4-14.1-31.5-31.5-31.5c-4.3,0-8.5,0.9-12.4,2.5c-1.3,0.6-2.8,0.5-4-0.2
			c-1.2-0.7-2.1-2-2.2-3.4c-1.8-15.3-14.7-26.8-30.1-26.8c-10.5,0-20.2,5.4-25.8,14.3c-0.8,1.2-2,2-3.5,2.1
			c-1.4,0.1-2.8-0.5-3.8-1.5c-6.9-8-16.9-12.6-27.4-12.6c-19.9,0-36.1,16.2-36.1,36.1c0,0.2,0,0.5,0,0.7l0,0.4
			c0,1.2-0.4,2.4-1.3,3.3c-0.8,0.9-2,1.4-3.2,1.4c0,0-0.1,0-0.1,0c-23.1,0-41.9,18.8-41.9,41.9c0,23.1,18.8,41.9,41.9,41.9
			c6.7,0,13.1-1.5,19-4.6C145.7,684.8,146.4,684.7,147.1,684.7z"/>
	</g>
	<g>
		<path style="fill:#FFFFFF;" d="M482.8,944.2c10.1,0,18.8,6.1,22.6,14.9c2.4-3.8,3.8-8.3,3.8-13.2c0-13.6-11-24.6-24.6-24.6
			c-13.6,0-24.6,11-24.6,24.6c0,3.5,0.7,6.7,2,9.7C466.4,948.8,474.1,944.2,482.8,944.2z"/>
		<path style="fill:#E8F0F6;" d="M484.6,970.5c8.7,0,16.4-4.6,20.8-11.4c-3.8-8.7-12.5-14.9-22.6-14.9c-8.7,0-16.4,4.6-20.8,11.4
			C465.8,964.4,474.5,970.5,484.6,970.5z"/>
		<path style="fill:#A1D2F0;" d="M484.6,975c-16,0-29.1-13-29.1-29.1s13-29.1,29.1-29.1c16,0,29.1,13,29.1,29.1S500.7,975,484.6,975
			z M484.6,925.8c-11.1,0-20.1,9-20.1,20.1s9,20.1,20.1,20.1c11.1,0,20.1-9,20.1-20.1S495.7,925.8,484.6,925.8z"/>
	</g>
	<g>
		<path style="fill:#FFFFFF;" d="M-172.8,939.2c-0.2-1.4-0.4-2.8-0.4-4.3c0-14.2,11.6-25.8,25.8-25.8c3.4,0,6.5,0.7,9.5,1.8
			c3.5-25.1,25-44.5,51.1-44.5c25.4,0,46.5,18.3,50.8,42.5c6.8-10.7,18.7-17.8,32.2-17.8c21.1,0,38.1,17.1,38.1,38.1
			c0,3.8-0.6,7.4-1.6,10.9c5.7,1.8,10.7,5.5,14.2,10.2c3.4-4.6,5.4-10.3,5.4-16.5c0-12.5-8.2-23.1-19.5-26.7c1-3.4,1.6-7.1,1.6-10.9
			c0-21.1-17.1-38.1-38.1-38.1c-13.6,0-25.5,7.1-32.2,17.8c-4.3-24.2-25.4-42.5-50.8-42.5c-26.1,0-47.6,19.3-51.1,44.5
			c-2.9-1.2-6.1-1.8-9.5-1.8c-14.3,0-25.8,11.6-25.8,25.8c0,1.5,0.1,2.9,0.4,4.3c-9.6,5.5-16.1,15.9-16.1,27.7
			c0,6,1.7,11.7,4.6,16.5C-181.4,945.8-177.5,942-172.8,939.2z"/>
		<path style="fill:#E8F0F6;" d="M-156.9,965.9h141.4c9,0,17.1-3.7,22.9-9.7c4.7,3.6,10.6,5.7,16.9,5.7c9.3,0,17.6-4.5,22.7-11.5
			c-3.5-4.8-8.4-8.4-14.2-10.2c1-3.4,1.6-7.1,1.6-10.9c0-21.1-17.1-38.1-38.1-38.1c-13.6,0-25.5,7.1-32.2,17.8
			c-4.3-24.2-25.4-42.5-50.8-42.5c-26.1,0-47.6,19.3-51.1,44.5c-2.9-1.2-6.1-1.8-9.5-1.8c-14.3,0-25.8,11.6-25.8,25.8
			c0,1.5,0.1,2.9,0.4,4.3c-4.7,2.7-8.7,6.6-11.5,11.2C-178.6,959.8-168.5,965.9-156.9,965.9z"/>
		<path style="fill:#A1D2F0;" d="M-14.2,971.7h-141.4c-20.1,0-36.5-16.4-36.5-36.5c0-12,6-23.2,15.8-30c0-0.7-0.1-1.3-0.1-2
			c0-16.7,13.6-30.3,30.3-30.3c2,0,4,0.2,6,0.6c5.9-25,28.5-43.2,54.6-43.2c24.1,0,45,15.2,52.8,37.2c7.9-8,18.7-12.5,30.2-12.5
			c23.5,0,42.6,19.1,42.6,42.6c0,2.7-0.3,5.4-0.8,8.1c11.4,5.3,18.7,16.7,18.7,29.5c0,17.9-14.6,32.5-32.5,32.5
			c-5.9,0-11.5-1.6-16.5-4.5C2.5,968.7-5.6,971.7-14.2,971.7z M-146.1,882c-11.7,0-21.3,9.6-21.3,21.3c0,1.1,0.1,2.2,0.3,3.5
			c0.3,1.9-0.6,3.7-2.2,4.6c-8.5,4.9-13.8,14-13.8,23.8c0,15.1,12.3,27.5,27.5,27.5h141.4c7.5,0,14.4-2.9,19.7-8.3
			c1.6-1.6,4.1-1.8,5.9-0.4c4.1,3.2,9.1,4.8,14.2,4.8c13,0,23.5-10.6,23.5-23.5c0-10.3-6.6-19.3-16.4-22.4c-2.3-0.7-3.6-3.2-3-5.6
			c0.9-3.1,1.4-6.4,1.4-9.6c0-18.6-15.1-33.6-33.6-33.6c-11.6,0-22.2,5.9-28.4,15.7c-1,1.6-2.9,2.4-4.7,2c-1.8-0.4-3.2-1.8-3.6-3.6
			c-4-22.5-23.5-38.8-46.4-38.8c-23.4,0-43.4,17.4-46.6,40.6c-0.2,1.4-1,2.6-2.2,3.3c-1.2,0.7-2.6,0.8-3.9,0.3
			C-140.8,882.5-143.4,882-146.1,882z"/>
	</g>
	<g>
		<path style="fill:#FFFFFF;" d="M-76.8,795.7c0-14.9,12.1-26.9,26.9-26.9c7.8,0,14.8,3.3,19.8,8.6c-0.6-2.8-1-5.7-1-8.6
			c0-21.2,17.2-38.3,38.3-38.3c14.5,0,27,8,33.6,19.8c2.8-0.9,5.8-1.5,8.9-1.5c13.1,0,24.1,9.1,27,21.3c2.6-1.1,5.5-1.7,8.5-1.7
			c10.3,0,19,7.1,21.4,16.7c0.2,0,0.4,0,0.6,0c5.6,0,10.7,2.1,14.6,5.5c4.6-4,7.4-9.9,7.4-16.5c0-12.2-9.9-22-22-22
			c-0.2,0-0.4,0-0.6,0c-2.4-9.6-11-16.7-21.4-16.7c-3,0-5.9,0.6-8.5,1.7c-2.9-12.2-13.9-21.3-27-21.3c-3.1,0-6.1,0.5-8.9,1.5
			c-6.5-11.8-19.1-19.8-33.6-19.8c-21.2,0-38.3,17.2-38.3,38.3c0,3,0.3,5.9,1,8.6c-4.9-5.3-11.9-8.6-19.8-8.6
			c-14.9,0-26.9,12.1-26.9,26.9c0,2.4,0.3,4.8,0.9,7.1c-8.3,2-14.4,9.4-14.4,18.2c0,7.1,4,13.3,9.9,16.5c1.4-0.8,2.9-1.4,4.6-1.7
			C-76.4,800.5-76.8,798.2-76.8,795.7z"/>
		<path style="fill:#E8F0F6;" d="M-52.8,789.5C-52.8,789.5-52.7,789.5-52.8,789.5c4.1,9.4,13.3,15.9,24.1,15.9
			c7.6,0,14.4-3.2,19.2-8.4c5.8,8.7,15.7,14.5,26.9,14.5c13.2,0,24.6-8,29.6-19.4c4.5,3.1,9.9,4.9,15.7,4.9
			c10.4,0,19.5-5.7,24.2-14.2c3.4,7.9,11.2,13.4,20.3,13.4c5.6,0,10.7-2.1,14.6-5.5c-3.9-3.4-9-5.5-14.6-5.5c-0.2,0-0.4,0-0.6,0
			c-2.4-9.6-11-16.7-21.4-16.7c-3,0-5.9,0.6-8.5,1.7c-2.9-12.2-13.9-21.3-27-21.3c-3.1,0-6.1,0.5-8.9,1.5
			c-6.5-11.8-19.1-19.8-33.6-19.8c-21.2,0-38.3,17.2-38.3,38.3c0,3,0.3,5.9,1,8.6c-4.9-5.3-11.9-8.6-19.8-8.6
			c-14.9,0-26.9,12.1-26.9,26.9c0,2.4,0.3,4.8,0.9,7.1c-1.6,0.4-3.1,1-4.6,1.7c2.7,1.4,5.7,2.2,8.9,2.2
			C-61.6,806.8-53.5,799.2-52.8,789.5z"/>
		<path style="fill:#A1D2F0;" d="M18.7,817.3c-10.6,0-20.6-4.6-27.5-12.4c-5.3,4-11.8,6.3-18.6,6.3c-8.9,0-17.1-3.8-22.8-10.2
			c-4.1,6.9-11.6,11.5-20,11.5c-12.8,0-23.3-10.4-23.3-23.3c0-9.3,5.5-17.5,13.7-21.2c-0.2-1.4-0.3-2.7-0.3-4.1
			c0-17.3,14.1-31.4,31.4-31.4c5,0,9.9,1.2,14.3,3.4c0.6-23.1,19.6-41.8,42.8-41.8c14.4,0,27.7,7.2,35.6,19.1
			c2.2-0.5,4.5-0.7,6.8-0.7c13.4,0,25.1,8.1,29.9,20.2c1.8-0.4,3.7-0.6,5.6-0.6c11.1,0,20.8,6.8,24.7,16.9
			c13.4,1.3,23.8,12.7,23.8,26.4c0,14.6-11.9,26.5-26.5,26.5c-8.1,0-15.6-3.7-20.6-9.8c-6,6.7-14.7,10.6-23.9,10.6
			c-4.9,0-9.6-1.1-13.9-3.1C43.5,810.5,31.7,817.3,18.7,817.3z M-8.2,793.8c0.1,0,0.2,0,0.4,0c1.4,0.1,2.6,0.9,3.4,2
			c5.2,7.8,13.8,12.5,23.2,12.5c11.1,0,21-6.6,25.4-16.7c0.5-1.2,1.6-2.2,2.9-2.5c1.3-0.4,2.7-0.1,3.8,0.6c3.9,2.7,8.4,4.1,13.2,4.1
			c8.4,0,16.2-4.6,20.3-11.9c0.8-1.5,2.4-2.4,4.2-2.3c1.7,0.1,3.2,1.1,3.9,2.7c2.8,6.5,9.1,10.6,16.1,10.6c9.7,0,17.5-7.9,17.5-17.5
			s-7.9-17.5-17.5-17.5c-0.1,0-0.2,0-0.3,0l-0.2,0c-2.1,0.1-4-1.4-4.5-3.4c-1.9-7.8-8.9-13.3-17-13.3c-2.3,0-4.6,0.5-6.8,1.4
			c-1.2,0.5-2.6,0.5-3.8-0.1c-1.2-0.6-2-1.7-2.3-3c-2.5-10.5-11.8-17.8-22.6-17.8c-2.5,0-5,0.4-7.4,1.2c-2.1,0.7-4.3-0.2-5.4-2.1
			c-6-10.8-17.3-17.5-29.6-17.5c-18.7,0-33.8,15.2-33.8,33.8c0,2.5,0.3,5.1,0.9,7.6c0.5,2-0.5,4-2.3,5c-1.8,1-4,0.6-5.4-0.9
			c-4.2-4.6-10.2-7.2-16.4-7.2C-61,741.6-71,751.6-71,764c0,2,0.3,4,0.8,5.9c0.3,1.2,0.1,2.4-0.5,3.5c-0.6,1-1.6,1.8-2.8,2.1
			c-6.4,1.5-10.9,7.2-10.9,13.9c0,7.9,6.4,14.3,14.3,14.3c7.4,0,13.6-5.8,14.2-13.1c0.1-1.2,0.7-2.3,1.6-3.1c0.9-0.8,2.2-1.1,3.4-1
			c0,0,0.1,0,0.2,0c1.6,0.2,2.9,1.2,3.6,2.7c3.4,8,11.2,13.2,19.9,13.2c6,0,11.8-2.5,15.9-7C-10.7,794.3-9.5,793.8-8.2,793.8z"/>
	</g>
	<g>
		<g>
			<path style="fill:#FFFFFF;" d="M128.7,878.3c6,0,11.5,1.8,16.2,4.8c6.3-11.2,18.3-18.8,32.2-18.8c4,0,7.8,0.6,11.3,1.8
				c0-0.7-0.1-1.4-0.1-2c0-24.3,19.7-44,44-44c10.3,0,19.8,3.6,27.4,9.6c0-0.1,0-0.3,0-0.4c0-32.5,26.4-58.9,58.9-58.9
				s58.9,26.4,58.9,58.9c0,1.8-0.1,3.5-0.2,5.3c0.1,0,0.2,0,0.2,0c13.5,0,25.6,5.3,34.6,14c3.5-1.1,7.2-1.7,11.1-1.7
				c15,0,27.9,8.7,34,21.3c2.4-5,3.8-10.6,3.8-16.5c0-20.9-16.9-37.8-37.8-37.8c-3.9,0-7.6,0.6-11.1,1.7c-9-8.6-21.2-14-34.6-14
				c-0.1,0-0.2,0-0.2,0c0.2-1.7,0.2-3.5,0.2-5.3c0-32.5-26.4-58.9-58.9-58.9s-58.9,26.4-58.9,58.9c0,0.1,0,0.3,0,0.4
				c-7.5-6-17-9.6-27.4-9.6c-24.3,0-44,19.7-44,44c0,0.7,0.1,1.4,0.1,2c-3.6-1.2-7.4-1.8-11.3-1.8c-13.8,0-25.8,7.6-32.2,18.8
				c-4.7-3-10.2-4.8-16.2-4.8c-16.5,0-29.9,13.4-29.9,29.9c0,6.1,1.8,11.8,5,16.5C109.2,883.6,118.3,878.3,128.7,878.3z"/>
			<path style="fill:#E8F0F6;" d="M128.7,905c9.1,0,17.2-4.1,22.7-10.4c6.6,6.4,15.7,10.4,25.7,10.4c14.1,0,26.4-7.9,32.6-19.6
				c6.4,12.9,19.7,21.8,35.1,21.8c16.8,0,31.1-10.6,36.7-25.4c3.2,17.7,18.6,31.1,37.2,31.1c14,0,26.1-7.6,32.7-18.9
				c7.6,4.7,16.6,7.5,26.2,7.5c13.5,0,25.6-5.3,34.6-14c3.5,1.1,7.2,1.7,11.1,1.7c15,0,27.9-8.7,34-21.3c-6.1-12.6-19-21.3-34-21.3
				c-3.9,0-7.6,0.6-11.1,1.7c-9-8.6-21.2-14-34.6-14c-0.1,0-0.2,0-0.2,0c0.2-1.7,0.2-3.5,0.2-5.3c0-32.5-26.4-58.9-58.9-58.9
				s-58.9,26.4-58.9,58.9c0,0.1,0,0.3,0,0.4c-7.5-6-17-9.6-27.4-9.6c-24.3,0-44,19.7-44,44c0,0.7,0.1,1.4,0.1,2
				c-3.6-1.2-7.4-1.8-11.3-1.8c-13.8,0-25.8,7.6-32.2,18.8c-4.7-3-10.2-4.8-16.2-4.8c-10.4,0-19.6,5.3-24.9,13.4
				C109.2,899.7,118.3,905,128.7,905z"/>
		</g>
		<path style="fill:#A1D2F0;" d="M319.8,918.7c-16.7,0-31.3-9.7-38.2-24.1c-8.1,11.4-21.3,18.5-35.6,18.5
			c-14.2,0-27.1-6.7-35.3-17.9c-7.8,9.8-19.6,15.7-32.4,15.7c-9.3,0-18.2-3.1-25.4-8.8c-6.3,5.6-14.4,8.8-22.9,8.8
			c-19,0-34.4-15.4-34.4-34.4c0-19,15.4-34.4,34.4-34.4c5.1,0,10.1,1.1,14.7,3.3c7.7-10.8,20.3-17.4,33.7-17.4
			c2.3,0,4.6,0.2,6.9,0.6c1.9-25.1,22.9-44.9,48.4-44.9c8.3,0,16.2,2,23.3,6c3.8-31.3,30.6-55.7,62.9-55.7c35,0,63.4,28.4,63.4,63.4
			c0,0.3,0,0.6,0,1c11.6,1,22.5,5.6,31.4,13.3c3.2-0.8,6.5-1.2,9.9-1.2c23.3,0,42.3,19,42.3,42.3c0,23.3-19,42.3-42.3,42.3
			c-3.3,0-6.6-0.4-9.9-1.2c-10,8.7-22.6,13.5-35.8,13.5c-8.6,0-17.1-2.1-24.7-6C346.1,912.1,333.3,918.7,319.8,918.7z M282.7,878.6
			c0.1,0,0.3,0,0.4,0c2,0.2,3.7,1.7,4,3.7c2.8,15.9,16.6,27.4,32.7,27.4c11.8,0,22.8-6.4,28.8-16.6c0.6-1,1.6-1.8,2.8-2.1
			c1.2-0.3,2.4-0.1,3.5,0.5c7.2,4.4,15.5,6.8,23.8,6.8c11.8,0,23-4.5,31.5-12.7c1.2-1.1,2.9-1.5,4.4-1.1c3.2,1,6.4,1.5,9.7,1.5
			c18.4,0,33.3-14.9,33.3-33.3s-14.9-33.3-33.3-33.3c-3.3,0-6.6,0.5-9.7,1.5c-1.6,0.5-3.3,0.1-4.4-1.1c-8.5-8.2-19.7-12.7-31.4-12.7
			c-0.1,0-0.2,0-0.3,0c-1.3,0-2.5-0.5-3.4-1.4c-0.9-0.9-1.3-2.2-1.2-3.5c0.2-1.8,0.2-3.4,0.2-4.9c0-30-24.4-54.4-54.4-54.4
			c-30,0-54.4,24.4-54.4,54.4l0,0.4c0,1.7-1,3.3-2.5,4.1c-1.6,0.8-3.4,0.6-4.8-0.5c-7.1-5.6-15.6-8.6-24.6-8.6
			c-21.8,0-39.5,17.7-39.5,39.5c0,0.3,0,0.7,0,1c0,0.3,0,0.6,0,0.8c0.1,1.5-0.6,2.9-1.8,3.8c-1.2,0.9-2.7,1.2-4.1,0.7
			c-3.2-1-6.6-1.6-9.9-1.6c-11.7,0-22.5,6.3-28.2,16.5c-0.6,1.1-1.6,1.9-2.8,2.2c-1.2,0.3-2.5,0.1-3.5-0.6
			c-4.1-2.7-8.9-4.1-13.7-4.1c-14,0-25.4,11.4-25.4,25.4c0,14,11.4,25.4,25.4,25.4c7.4,0,14.4-3.2,19.2-8.9c0.8-0.9,2-1.5,3.2-1.6
			c1.2-0.1,2.4,0.4,3.3,1.3c6.1,5.9,14.1,9.2,22.5,9.2c12,0,22.9-6.6,28.6-17.2c0.8-1.5,2.3-2.4,4-2.4c0,0,0,0,0.1,0
			c1.7,0,3.2,1,4,2.5c5.9,11.9,17.8,19.3,31.1,19.3c14.4,0,27.4-9.1,32.4-22.5C279.1,879.8,280.8,878.6,282.7,878.6z"/>
	</g>
	<g>
		<path style="fill:#FFFFFF;" d="M597.4,928.2C597.4,928.2,597.4,928.2,597.4,928.2c0-0.4,0-0.8,0-1.2c0-22.4,18.2-40.6,40.6-40.6
			c12.3,0,23.3,5.5,30.8,14.1c6.1-9.9,17.1-16.4,29.6-16.4c17.9,0,32.6,13.4,34.6,30.8c4.3-1.9,9.1-2.9,14.2-2.9
			c13.9,0,26,7.9,32,19.5c2.6-4.9,4-10.6,4-16.5c0-19.9-16.1-36-36-36c-5,0-9.8,1-14.2,2.9c-2-17.3-16.7-30.8-34.6-30.8
			c-12.5,0-23.4,6.6-29.6,16.4c-7.4-8.6-18.5-14.1-30.8-14.1c-22.4,0-40.6,18.2-40.6,40.6c0,0.4,0,0.8,0,1.2c0,0,0,0,0,0
			c-25.6,0-46.4,20.8-46.4,46.4c0,5.8,1.1,11.4,3,16.5C560.6,940.6,577.5,928.2,597.4,928.2z"/>
		<path style="fill:#E8F0F6;" d="M597.4,988c7.6,0,14.7-1.8,21-5c6.5,14.6,21.1,24.8,38.2,24.8c16.1,0,30-9.1,37-22.4
			c6.4,10,17.6,16.6,30.3,16.6c19.9,0,36-16.1,36-36c0-5.8-1.4-11.3-3.9-16.2c10-2.6,18.4-9.4,23.1-18.4c-6-11.6-18-19.5-32-19.5
			c-5,0-9.8,1-14.2,2.9c-2-17.3-16.7-30.8-34.6-30.8c-12.5,0-23.4,6.6-29.6,16.4c-7.4-8.6-18.5-14.1-30.8-14.1
			c-22.4,0-40.6,18.2-40.6,40.6c0,0.4,0,0.8,0,1.2c0,0,0,0,0,0c-19.8,0-36.7,12.4-43.4,29.9C560.6,975.6,577.5,988,597.4,988z"/>
		<path style="fill:#A1D2F0;" d="M657.8,1013.5c-16.7,0-32-9-40.2-23.4c-6,2.4-12.4,3.7-19,3.7c-28.1,0-50.9-22.8-50.9-50.9
			c0-26.6,20.5-48.5,46.5-50.7c1.6-23.4,21.2-42,45-42c11.3,0,22,4.2,30.3,11.7c7.4-8.9,18.3-14,30.1-14c18.1,0,33.6,12.3,38,29.3
			c3.5-1,7.1-1.4,10.7-1.4c22.3,0,40.5,18.2,40.5,40.5c0,16.8-10.3,31.6-25.5,37.6c1.5,4.3,2.3,8.8,2.3,13.4
			c0,22.3-18.2,40.5-40.5,40.5c-11.5,0-22.3-4.8-29.9-13.2C686.6,1006.4,672.8,1013.5,657.8,1013.5z M619.7,979.7
			c0.5,0,1,0.1,1.5,0.3c1.2,0.4,2.1,1.3,2.6,2.4c6,13.4,19.4,22.1,34.1,22.1c13.9,0,26.6-7.7,33-20c0.7-1.4,2.2-2.3,3.8-2.4
			c1.6-0.1,3.1,0.7,4,2.1c5.8,9.1,15.7,14.5,26.5,14.5c17.4,0,31.5-14.1,31.5-31.5c0-5-1.1-9.7-3.4-14.2c-0.6-1.2-0.6-2.7-0.1-3.9
			s1.7-2.2,3-2.5c13.9-3.6,23.7-16.1,23.7-30.5c0-17.4-14.1-31.5-31.5-31.5c-4.3,0-8.5,0.9-12.4,2.5c-1.3,0.6-2.8,0.5-4-0.2
			c-1.2-0.7-2.1-2-2.2-3.4c-1.8-15.3-14.7-26.8-30.1-26.8c-10.5,0-20.2,5.4-25.8,14.3c-0.8,1.2-2,2-3.5,2.1
			c-1.4,0.1-2.8-0.5-3.8-1.5c-6.9-8-16.9-12.6-27.4-12.6c-19.9,0-36.1,16.2-36.1,36.1c0,0.2,0,0.5,0,0.7l0,0.4
			c0,1.2-0.4,2.4-1.3,3.3c-0.8,0.9-2,1.4-3.2,1.4c0,0-0.1,0-0.1,0c-23.1,0-41.9,18.8-41.9,41.9c0,23.1,18.8,41.9,41.9,41.9
			c6.7,0,13.1-1.5,19-4.6C618.3,979.9,619,979.7,619.7,979.7z"/>
	</g>
	<g>
		<path style="fill:#E8F0F6;" d="M597.4-12c7.6,0,14.7-1.8,21-5c6.5,14.6,21.1,24.8,38.2,24.8c16.1,0,30-9.1,37-22.4
			c6.4,10,17.6,16.6,30.3,16.6c19.9,0,36-16.1,36-36c0-5.8-1.4-11.3-3.9-16.2c10-2.6,18.4-9.4,23.1-18.4c-6-11.6-18-19.5-32-19.5
			c-5,0-9.8,1-14.2,2.9c-2-17.3-16.7-30.8-34.6-30.8c-12.5,0-23.4,6.6-29.6,16.4c-7.4-8.6-18.5-14.1-30.8-14.1
			c-22.4,0-40.6,18.2-40.6,40.6c0,0.4,0,0.8,0,1.2c0,0,0,0,0,0c-19.8,0-36.7,12.4-43.4,29.9C560.6-24.4,577.5-12,597.4-12z"/>
		<path style="fill:#A1D2F0;" d="M657.8,13.5c-16.7,0-32-9-40.2-23.4c-6,2.4-12.4,3.7-19,3.7c-28.1,0-50.9-22.8-50.9-50.9
			c0-26.6,20.5-48.5,46.5-50.7c1.6-23.4,21.2-42,45-42c11.3,0,22,4.2,30.3,11.7c7.4-8.9,18.3-14,30.1-14c18.1,0,33.6,12.3,38,29.3
			c3.5-1,7.1-1.4,10.7-1.4c22.3,0,40.5,18.2,40.5,40.5c0,16.8-10.3,31.6-25.5,37.6c1.5,4.3,2.3,8.8,2.3,13.4
			c0,22.3-18.2,40.5-40.5,40.5c-11.5,0-22.3-4.8-29.9-13.2C686.6,6.4,672.8,13.5,657.8,13.5z M619.7-20.3c0.5,0,1,0.1,1.5,0.3
			c1.2,0.4,2.1,1.3,2.6,2.4c6,13.4,19.4,22.1,34.1,22.1c13.9,0,26.6-7.7,33-20c0.7-1.4,2.2-2.3,3.8-2.4c1.6-0.1,3.1,0.7,4,2.1
			c5.8,9.1,15.7,14.5,26.5,14.5c17.4,0,31.5-14.1,31.5-31.5c0-5-1.1-9.7-3.4-14.2c-0.6-1.2-0.6-2.7-0.1-3.9s1.7-2.2,3-2.5
			c13.9-3.6,23.7-16.1,23.7-30.5c0-17.4-14.1-31.5-31.5-31.5c-4.3,0-8.5,0.9-12.4,2.5c-1.3,0.6-2.8,0.5-4-0.2
			c-1.2-0.7-2.1-2-2.2-3.4c-1.8-15.3-14.7-26.8-30.1-26.8c-10.5,0-20.2,5.4-25.8,14.3c-0.8,1.2-2,2-3.5,2.1
			c-1.4,0.1-2.8-0.5-3.8-1.5c-6.9-8-16.9-12.6-27.4-12.6c-19.9,0-36.1,16.2-36.1,36.1c0,0.2,0,0.5,0,0.7l0,0.4
			c0,1.2-0.4,2.4-1.3,3.3c-0.8,0.9-2,1.4-3.2,1.4c0,0-0.1,0-0.1,0c-23.1,0-41.9,18.8-41.9,41.9c0,23.1,18.8,41.9,41.9,41.9
			c6.7,0,13.1-1.5,19-4.6C618.3-20.1,619-20.3,619.7-20.3z"/>
	</g>
	<g>
		<path style="fill:#FFFFFF;" d="M688.9,755.1c5-14.8,19-25.5,35.5-25.5c20.7,0,37.5,16.8,37.5,37.5c0,2-0.2,4-0.5,5.9
			c3.1-0.7,6.2-1.1,9.5-1.1c17,0,31.6,10.3,38,24.9c2.2-5.1,3.4-10.6,3.4-16.5c0-22.9-18.5-41.4-41.4-41.4c-3.3,0-6.5,0.4-9.5,1.1
			c0.3-1.9,0.5-3.9,0.5-5.9c0-20.7-16.8-37.5-37.5-37.5c-16.5,0-30.5,10.7-35.5,25.5c-17.5,4-30.6,19.8-30.6,38.5
			c0,5.9,1.3,11.5,3.6,16.5C666.9,766.1,676.8,757.9,688.9,755.1z"/>
		<path style="fill:#E8F0F6;" d="M659.8,793.7c0,21,17,38,38,38c3.9,0,7.7-0.6,11.3-1.7c5.5,6.4,13.7,10.5,22.8,10.5
			c13.1,0,24.2-8.4,28.3-20.1c3.4,0.9,7,1.4,10.8,1.4c17,0,31.6-10.3,38-24.9c-6.4-14.7-21-24.9-38-24.9c-3.3,0-6.5,0.4-9.5,1.1
			c0.3-1.9,0.5-3.9,0.5-5.9c0-20.7-16.8-37.5-37.5-37.5c-16.5,0-30.5,10.7-35.5,25.5c-12,2.8-22,11-27,22c0.3,0.6,0.6,1.3,0.9,1.9
			C660.9,783.5,659.8,788.5,659.8,793.7z"/>
		<path style="fill:#A1D2F0;" d="M731.9,844.9c-9.1,0-17.8-3.6-24.2-9.9c-3.2,0.8-6.5,1.2-9.9,1.2c-23.4,0-42.5-19.1-42.5-42.5
			c0-5,0.9-9.8,2.5-14.5c-2.7-5.8-4.1-12.2-4.1-18.6c0-19.8,12.9-36.9,31.7-42.3c6.4-15.8,21.8-26.2,38.9-26.2c23.2,0,42,18.9,42,42
			c0,0.2,0,0.3,0,0.5c1.5-0.2,3-0.2,4.6-0.2c25.3,0,45.9,20.6,45.9,45.9s-20.6,45.9-45.9,45.9c-2.7,0-5.4-0.2-8.1-0.7
			C757.2,837.3,745.2,844.9,731.9,844.9z M709.1,825.4c1.3,0,2.5,0.6,3.4,1.6c4.9,5.7,11.9,8.9,19.4,8.9c10.8,0,20.5-6.9,24.1-17.1
			c0.8-2.2,3.1-3.5,5.4-2.9c3.1,0.8,6.4,1.3,9.6,1.3c20.4,0,36.9-16.6,36.9-36.9s-16.6-36.9-36.9-36.9c-2.8,0-5.7,0.3-8.5,1
			c-1.5,0.3-3-0.1-4.1-1.1c-1.1-1-1.6-2.5-1.4-4c0.3-1.7,0.4-3.5,0.4-5.2c0-18.2-14.8-33-33-33c-14.2,0-26.7,9-31.3,22.4
			c-0.5,1.5-1.7,2.6-3.2,2.9c-16,3.7-27.1,17.7-27.1,34.1c0,5.7,1.4,11.2,4,16.3c0.6,1.2,0.7,2.6,0.2,3.8c-1.7,4.1-2.6,8.5-2.6,12.9
			c0,18.5,15,33.5,33.5,33.5c3.4,0,6.8-0.5,10-1.5C708.2,825.5,708.7,825.4,709.1,825.4z"/>
	</g>
	<g>
		<path style="fill:#FFFFFF;" d="M853.8,778.7c10.1,0,18.8,6.1,22.6,14.9c2.4-3.8,3.8-8.3,3.8-13.2c0-13.6-11-24.6-24.6-24.6
			c-13.6,0-24.6,11-24.6,24.6c0,3.5,0.7,6.7,2,9.7C837.4,783.2,845.1,778.7,853.8,778.7z"/>
		<path style="fill:#E8F0F6;" d="M855.6,804.9c8.7,0,16.4-4.6,20.8-11.4c-3.8-8.7-12.5-14.9-22.6-14.9c-8.7,0-16.4,4.6-20.8,11.4
			C836.8,798.8,845.5,804.9,855.6,804.9z"/>
		<path style="fill:#A1D2F0;" d="M855.6,809.4c-16,0-29.1-13-29.1-29.1s13-29.1,29.1-29.1c16,0,29.1,13,29.1,29.1
			S871.7,809.4,855.6,809.4z M855.6,760.3c-11.1,0-20.1,9-20.1,20.1s9,20.1,20.1,20.1c11.1,0,20.1-9,20.1-20.1
			S866.7,760.3,855.6,760.3z"/>
	</g>
	<g>
		<path style="fill:#FFFFFF;" d="M543.7,834.8c3.7,0,7.2,1,10.3,2.8c3-1.8,6.5-2.8,10.3-2.8c6.6,0,12.5,3.2,16.3,8
			c2.7-3.5,4.3-7.8,4.3-12.5c0-11.3-9.2-20.5-20.5-20.5c-3.7,0-7.2,1-10.3,2.8c-3-1.8-6.5-2.8-10.3-2.8c-11.3,0-20.5,9.2-20.5,20.5
			c0,4.7,1.6,9.1,4.3,12.5C531.2,838,537.1,834.8,543.7,834.8z"/>
		<path style="fill:#E8F0F6;" d="M543.7,850.9c3.7,0,7.2-1,10.3-2.8c3,1.8,6.5,2.8,10.3,2.8c6.6,0,12.5-3.2,16.3-8
			c-3.8-4.9-9.6-8-16.3-8c-3.7,0-7.2,1-10.3,2.8c-3-1.8-6.5-2.8-10.3-2.8c-6.6,0-12.5,3.2-16.3,8
			C531.2,847.7,537.1,850.9,543.7,850.9z"/>
		<path style="fill:#A1D2F0;" d="M564.2,855.4c-3.5,0-7-0.8-10.3-2.2c-3.2,1.5-6.7,2.2-10.3,2.2c-13.8,0-25-11.2-25-25
			c0-13.8,11.2-25,25-25c3.5,0,7,0.8,10.3,2.2c3.2-1.5,6.7-2.2,10.3-2.2c13.8,0,25,11.2,25,25C589.3,844.1,578,855.4,564.2,855.4z
			 M554,843.6c0.8,0,1.6,0.2,2.3,0.6c2.4,1.4,5.2,2.2,8,2.2c8.8,0,16-7.2,16-16s-7.2-16-16-16c-2.8,0-5.6,0.7-8,2.2
			c-1.4,0.8-3.1,0.8-4.5,0c-2.4-1.4-5.2-2.2-8-2.2c-8.8,0-16,7.2-16,16s7.2,16,16,16c2.8,0,5.6-0.7,8-2.2
			C552.4,843.8,553.2,843.6,554,843.6z"/>
	</g>
	<g>
		<path style="fill:#FFFFFF;" d="M827.2,939.2c-0.2-1.4-0.4-2.8-0.4-4.3c0-14.2,11.6-25.8,25.8-25.8c3.3,0,6.5,0.7,9.5,1.8
			c3.5-25.1,25-44.5,51.1-44.5c25.4,0,46.5,18.3,50.8,42.5c6.8-10.7,18.7-17.8,32.2-17.8c21.1,0,38.1,17.1,38.1,38.1
			c0,3.8-0.6,7.4-1.6,10.9c5.7,1.8,10.7,5.5,14.2,10.2c3.4-4.6,5.4-10.3,5.4-16.5c0-12.5-8.2-23.1-19.5-26.7c1-3.4,1.6-7.1,1.6-10.9
			c0-21.1-17.1-38.1-38.1-38.1c-13.6,0-25.5,7.1-32.2,17.8c-4.3-24.2-25.4-42.5-50.8-42.5c-26.1,0-47.6,19.3-51.1,44.5
			c-2.9-1.2-6.1-1.8-9.5-1.8c-14.3,0-25.8,11.6-25.8,25.8c0,1.5,0.1,2.9,0.4,4.3c-9.6,5.5-16.1,15.9-16.1,27.7
			c0,6,1.7,11.7,4.6,16.5C818.6,945.8,822.5,942,827.2,939.2z"/>
		<path style="fill:#E8F0F6;" d="M843.1,965.9h141.4c9,0,17.1-3.7,22.9-9.7c4.7,3.6,10.6,5.7,16.9,5.7c9.3,0,17.6-4.5,22.7-11.5
			c-3.5-4.8-8.4-8.4-14.2-10.2c1-3.4,1.6-7.1,1.6-10.9c0-21.1-17.1-38.1-38.1-38.1c-13.6,0-25.5,7.1-32.2,17.8
			c-4.3-24.2-25.4-42.5-50.8-42.5c-26.1,0-47.6,19.3-51.1,44.5c-2.9-1.2-6.1-1.8-9.5-1.8c-14.3,0-25.8,11.6-25.8,25.8
			c0,1.5,0.1,2.9,0.4,4.3c-4.7,2.7-8.7,6.6-11.5,11.2C821.4,959.8,831.5,965.9,843.1,965.9z"/>
		<path style="fill:#A1D2F0;" d="M985.8,971.7H844.4c-20.1,0-36.5-16.4-36.5-36.5c0-12,6-23.2,15.8-30c0-0.7-0.1-1.3-0.1-2
			c0-16.7,13.6-30.3,30.3-30.3c2,0,4,0.2,6,0.6c5.9-25,28.5-43.2,54.6-43.2c24.1,0,45,15.2,52.8,37.2c7.9-8,18.7-12.5,30.2-12.5
			c23.5,0,42.6,19.1,42.6,42.6c0,2.7-0.3,5.4-0.8,8.1c11.4,5.3,18.7,16.7,18.7,29.5c0,17.9-14.6,32.5-32.5,32.5
			c-5.9,0-11.5-1.6-16.5-4.5C1002.5,968.7,994.4,971.7,985.8,971.7z M853.9,882c-11.7,0-21.3,9.6-21.3,21.3c0,1.1,0.1,2.2,0.3,3.5
			c0.3,1.9-0.6,3.7-2.2,4.6c-8.5,4.9-13.8,14-13.8,23.8c0,15.1,12.3,27.5,27.5,27.5h141.4c7.5,0,14.4-2.9,19.7-8.3
			c1.6-1.6,4.1-1.8,5.9-0.4c4.1,3.2,9.1,4.8,14.2,4.8c13,0,23.5-10.6,23.5-23.5c0-10.3-6.6-19.3-16.4-22.4c-2.3-0.7-3.6-3.2-3-5.6
			c0.9-3.1,1.4-6.4,1.4-9.6c0-18.6-15.1-33.6-33.6-33.6c-11.6,0-22.2,5.9-28.4,15.7c-1,1.6-2.9,2.4-4.7,2c-1.8-0.4-3.2-1.8-3.6-3.6
			c-4-22.5-23.5-38.8-46.4-38.8c-23.4,0-43.4,17.4-46.6,40.6c-0.2,1.4-1,2.6-2.2,3.3c-1.2,0.7-2.6,0.8-3.9,0.3
			C859.2,882.5,856.6,882,853.9,882z"/>
	</g>
	<g>
		<path style="fill:#FFFFFF;" d="M923.2,795.7c0-14.9,12.1-26.9,26.9-26.9c7.8,0,14.8,3.3,19.8,8.6c-0.6-2.8-1-5.7-1-8.6
			c0-21.2,17.2-38.3,38.3-38.3c14.5,0,27,8,33.6,19.8c2.8-0.9,5.8-1.5,8.9-1.5c13.1,0,24.1,9.1,27,21.3c2.6-1.1,5.5-1.7,8.5-1.7
			c10.3,0,19,7.1,21.4,16.7c0.2,0,0.4,0,0.6,0c5.6,0,10.7,2.1,14.6,5.5c4.6-4,7.4-9.9,7.4-16.5c0-12.2-9.9-22-22-22
			c-0.2,0-0.4,0-0.6,0c-2.4-9.6-11-16.7-21.4-16.7c-3,0-5.9,0.6-8.5,1.7c-2.9-12.2-13.9-21.3-27-21.3c-3.1,0-6.1,0.5-8.9,1.5
			c-6.5-11.8-19.1-19.8-33.6-19.8c-21.2,0-38.3,17.2-38.3,38.3c0,3,0.3,5.9,1,8.6c-4.9-5.3-11.9-8.6-19.8-8.6
			c-14.9,0-26.9,12.1-26.9,26.9c0,2.4,0.3,4.8,0.9,7.1c-8.3,2-14.4,9.4-14.4,18.2c0,7.1,4,13.3,9.9,16.5c1.4-0.8,2.9-1.4,4.6-1.7
			C923.6,800.5,923.2,798.2,923.2,795.7z"/>
		<path style="fill:#E8F0F6;" d="M947.2,789.5C947.2,789.5,947.3,789.5,947.2,789.5c4.1,9.4,13.3,15.9,24.1,15.9
			c7.6,0,14.4-3.2,19.2-8.4c5.8,8.7,15.7,14.5,26.9,14.5c13.2,0,24.6-8,29.6-19.4c4.5,3.1,9.9,4.9,15.7,4.9
			c10.4,0,19.5-5.7,24.2-14.2c3.4,7.9,11.2,13.4,20.3,13.4c5.6,0,10.7-2.1,14.6-5.5c-3.9-3.4-9-5.5-14.6-5.5c-0.2,0-0.4,0-0.6,0
			c-2.4-9.6-11-16.7-21.4-16.7c-3,0-5.9,0.6-8.5,1.7c-2.9-12.2-13.9-21.3-27-21.3c-3.1,0-6.1,0.5-8.9,1.5
			c-6.5-11.8-19.1-19.8-33.6-19.8c-21.2,0-38.3,17.2-38.3,38.3c0,3,0.3,5.9,1,8.6c-4.9-5.3-11.9-8.6-19.8-8.6
			c-14.9,0-26.9,12.1-26.9,26.9c0,2.4,0.3,4.8,0.9,7.1c-1.6,0.4-3.1,1-4.6,1.7c2.7,1.4,5.7,2.2,8.9,2.2
			C938.4,806.8,946.5,799.2,947.2,789.5z"/>
		<path style="fill:#A1D2F0;" d="M1018.7,817.3c-10.6,0-20.6-4.6-27.5-12.4c-5.3,4-11.8,6.3-18.6,6.3c-8.9,0-17.1-3.8-22.8-10.2
			c-4.1,6.9-11.6,11.5-20,11.5c-12.8,0-23.3-10.4-23.3-23.3c0-9.3,5.5-17.5,13.7-21.2c-0.2-1.4-0.3-2.7-0.3-4.1
			c0-17.3,14.1-31.4,31.4-31.4c5,0,9.9,1.2,14.3,3.4c0.6-23.1,19.6-41.8,42.8-41.8c14.4,0,27.7,7.2,35.6,19.1
			c2.2-0.5,4.5-0.7,6.8-0.7c13.4,0,25.1,8.1,29.9,20.2c1.8-0.4,3.7-0.6,5.6-0.6c11.1,0,20.8,6.8,24.7,16.9
			c13.4,1.3,23.8,12.7,23.8,26.4c0,14.6-11.9,26.5-26.5,26.5c-8.1,0-15.6-3.7-20.6-9.8c-6,6.7-14.7,10.6-23.9,10.6
			c-4.9,0-9.6-1.1-13.9-3.1C1043.5,810.5,1031.7,817.3,1018.7,817.3z M991.8,793.8c0.1,0,0.2,0,0.4,0c1.4,0.1,2.6,0.9,3.4,2
			c5.2,7.8,13.8,12.5,23.2,12.5c11.1,0,21-6.6,25.4-16.7c0.5-1.2,1.6-2.2,2.9-2.5c1.3-0.4,2.7-0.1,3.8,0.6c3.9,2.7,8.4,4.1,13.2,4.1
			c8.4,0,16.2-4.6,20.3-11.9c0.8-1.5,2.4-2.4,4.2-2.3c1.7,0.1,3.2,1.1,3.9,2.7c2.8,6.5,9.1,10.6,16.1,10.6c9.7,0,17.5-7.9,17.5-17.5
			s-7.9-17.5-17.5-17.5c-0.1,0-0.2,0-0.3,0l-0.2,0c-2.1,0.1-4-1.4-4.5-3.4c-1.9-7.8-8.9-13.3-17-13.3c-2.3,0-4.6,0.5-6.8,1.4
			c-1.2,0.5-2.6,0.5-3.8-0.1c-1.2-0.6-2-1.7-2.3-3c-2.5-10.5-11.8-17.8-22.6-17.8c-2.5,0-5,0.4-7.4,1.2c-2.1,0.7-4.3-0.2-5.4-2.1
			c-6-10.8-17.3-17.5-29.6-17.5c-18.7,0-33.8,15.2-33.8,33.8c0,2.5,0.3,5.1,0.9,7.6c0.5,2-0.5,4-2.3,5s-4,0.6-5.4-0.9
			c-4.2-4.6-10.2-7.2-16.4-7.2c-12.4,0-22.4,10.1-22.4,22.4c0,2,0.3,4,0.8,5.9c0.3,1.2,0.1,2.4-0.5,3.5c-0.6,1-1.6,1.8-2.8,2.1
			c-6.4,1.5-10.9,7.2-10.9,13.9c0,7.9,6.4,14.3,14.3,14.3c7.4,0,13.6-5.8,14.2-13.1c0.1-1.2,0.7-2.3,1.6-3.1c0.9-0.8,2.2-1.1,3.4-1
			c0,0,0.1,0,0.2,0c1.6,0.2,2.9,1.2,3.6,2.7c3.4,8,11.2,13.2,19.9,13.2c6,0,11.8-2.5,15.9-7C989.3,794.3,990.5,793.8,991.8,793.8z"
			/>
	</g>
	<g>
		<path style="fill:#FFFFFF;" d="M359.4,509.6c5-14.8,19-25.5,35.5-25.5c20.7,0,37.5,16.8,37.5,37.5c0,2-0.2,4-0.5,5.9
			c3.1-0.7,6.2-1.1,9.5-1.1c17,0,31.6,10.3,38,24.9c2.2-5.1,3.4-10.6,3.4-16.5c0-22.9-18.5-41.4-41.4-41.4c-3.3,0-6.5,0.4-9.5,1.1
			c0.3-1.9,0.5-3.9,0.5-5.9c0-20.7-16.8-37.5-37.5-37.5c-16.5,0-30.5,10.7-35.5,25.5c-17.5,4-30.6,19.8-30.6,38.5
			c0,5.9,1.3,11.5,3.6,16.5C337.4,520.7,347.3,512.4,359.4,509.6z"/>
		<path style="fill:#E8F0F6;" d="M330.3,548.2c0,21,17,38,38,38c3.9,0,7.7-0.6,11.3-1.7c5.5,6.4,13.7,10.5,22.8,10.5
			c13.1,0,24.2-8.4,28.3-20.1c3.4,0.9,7,1.4,10.8,1.4c17,0,31.6-10.3,38-24.9c-6.4-14.7-21-24.9-38-24.9c-3.3,0-6.5,0.4-9.5,1.1
			c0.3-1.9,0.5-3.9,0.5-5.9c0-20.7-16.8-37.5-37.5-37.5c-16.5,0-30.5,10.7-35.5,25.5c-12,2.8-22,11-27,22c0.3,0.6,0.6,1.3,0.9,1.9
			C331.4,538.1,330.3,543,330.3,548.2z"/>
		<path style="fill:#A1D2F0;" d="M402.4,599.5c-9.1,0-17.8-3.6-24.2-9.9c-3.2,0.8-6.5,1.2-9.9,1.2c-23.4,0-42.5-19.1-42.5-42.5
			c0-5,0.9-9.8,2.5-14.5c-2.7-5.8-4.1-12.2-4.1-18.6c0-19.8,12.9-36.9,31.7-42.3c6.4-15.8,21.8-26.2,38.9-26.2c23.2,0,42,18.9,42,42
			c0,0.2,0,0.3,0,0.5c1.5-0.2,3-0.2,4.6-0.2c25.3,0,45.9,20.6,45.9,45.9s-20.6,45.9-45.9,45.9c-2.7,0-5.4-0.2-8.1-0.7
			C427.7,591.9,415.7,599.5,402.4,599.5z M379.6,580c1.3,0,2.5,0.6,3.4,1.6c4.9,5.7,11.9,8.9,19.4,8.9c10.8,0,20.5-6.9,24.1-17.1
			c0.8-2.2,3.1-3.5,5.4-2.9c3.1,0.8,6.4,1.3,9.6,1.3c20.4,0,36.9-16.6,36.9-36.9S461.9,498,441.5,498c-2.8,0-5.7,0.3-8.5,1
			c-1.5,0.3-3-0.1-4.1-1.1c-1.1-1-1.6-2.5-1.4-4c0.3-1.7,0.4-3.5,0.4-5.2c0-18.2-14.8-33-33-33c-14.2,0-26.7,9-31.3,22.4
			c-0.5,1.5-1.7,2.6-3.2,2.9c-16,3.7-27.1,17.7-27.1,34.1c0,5.7,1.4,11.2,4,16.3c0.6,1.2,0.7,2.6,0.2,3.8c-1.7,4.1-2.6,8.5-2.6,12.9
			c0,18.5,15,33.5,33.5,33.5c3.4,0,6.8-0.5,10-1.5C378.7,580.1,379.1,580,379.6,580z"/>
	</g>
	<g>
		<path style="fill:#FFFFFF;" d="M503.5,432.4c10.1,0,18.8,6.1,22.6,14.9c2.4-3.8,3.8-8.3,3.8-13.2c0-13.6-11-24.6-24.6-24.6
			c-13.6,0-24.6,11-24.6,24.6c0,3.5,0.7,6.7,2,9.7C487.1,437,494.8,432.4,503.5,432.4z"/>
		<path style="fill:#E8F0F6;" d="M505.4,458.7c8.7,0,16.4-4.6,20.8-11.4c-3.8-8.7-12.5-14.9-22.6-14.9c-8.7,0-16.4,4.6-20.8,11.4
			C486.6,452.6,495.2,458.7,505.4,458.7z"/>
		<path style="fill:#A1D2F0;" d="M505.4,463.2c-16,0-29.1-13-29.1-29.1s13-29.1,29.1-29.1c16,0,29.1,13,29.1,29.1
			S521.4,463.2,505.4,463.2z M505.4,414c-11.1,0-20.1,9-20.1,20.1s9,20.1,20.1,20.1c11.1,0,20.1-9,20.1-20.1S516.4,414,505.4,414z"
			/>
	</g>
	<g>
		<path style="fill:#FFFFFF;" d="M251.3,499.6c3.7,0,7.2,1,10.3,2.8c3-1.8,6.5-2.8,10.3-2.8c6.6,0,12.5,3.2,16.3,8
			c2.7-3.5,4.3-7.8,4.3-12.5c0-11.3-9.2-20.5-20.5-20.5c-3.7,0-7.2,1-10.3,2.8c-3-1.8-6.5-2.8-10.3-2.8c-11.3,0-20.5,9.2-20.5,20.5
			c0,4.7,1.6,9.1,4.3,12.5C238.8,502.7,244.7,499.6,251.3,499.6z"/>
		<path style="fill:#E8F0F6;" d="M251.3,515.6c3.7,0,7.2-1,10.3-2.8c3,1.8,6.5,2.8,10.3,2.8c6.6,0,12.5-3.2,16.3-8
			c-3.8-4.9-9.6-8-16.3-8c-3.7,0-7.2,1-10.3,2.8c-3-1.8-6.5-2.8-10.3-2.8c-6.6,0-12.5,3.2-16.3,8
			C238.8,512.5,244.7,515.6,251.3,515.6z"/>
		<path style="fill:#A1D2F0;" d="M271.9,520.1c-3.5,0-7-0.8-10.3-2.2c-3.2,1.5-6.7,2.2-10.3,2.2c-13.8,0-25-11.2-25-25
			c0-13.8,11.2-25,25-25c3.5,0,7,0.8,10.3,2.2c3.2-1.5,6.7-2.2,10.3-2.2c13.8,0,25,11.2,25,25C296.9,508.9,285.7,520.1,271.9,520.1z
			 M261.6,508.4c0.8,0,1.6,0.2,2.3,0.6c2.4,1.4,5.2,2.2,8,2.2c8.8,0,16-7.2,16-16s-7.2-16-16-16c-2.8,0-5.6,0.7-8,2.2
			c-1.4,0.8-3.1,0.8-4.5,0c-2.4-1.4-5.2-2.2-8-2.2c-8.8,0-16,7.2-16,16s7.2,16,16,16c2.8,0,5.6-0.7,8-2.2
			C260,508.6,260.8,508.4,261.6,508.4z"/>
	</g>
	<g>
		<path style="fill:#FFFFFF;" d="M194.1,402.6c0-14.9,12.1-26.9,26.9-26.9c7.8,0,14.8,3.3,19.8,8.6c-0.6-2.8-1-5.7-1-8.6
			c0-21.2,17.2-38.3,38.3-38.3c14.5,0,27,8,33.6,19.8c2.8-0.9,5.8-1.5,8.9-1.5c13.1,0,24.1,9.1,27,21.3c2.6-1.1,5.5-1.7,8.5-1.7
			c10.3,0,19,7.1,21.4,16.7c0.2,0,0.4,0,0.6,0c5.6,0,10.7,2.1,14.6,5.5c4.6-4,7.4-9.9,7.4-16.5c0-12.2-9.9-22-22-22
			c-0.2,0-0.4,0-0.6,0c-2.4-9.6-11-16.7-21.4-16.7c-3,0-5.9,0.6-8.5,1.7c-2.9-12.2-13.9-21.3-27-21.3c-3.1,0-6.1,0.5-8.9,1.5
			c-6.5-11.8-19.1-19.8-33.6-19.8c-21.2,0-38.3,17.2-38.3,38.3c0,3,0.3,5.9,1,8.6c-4.9-5.3-11.9-8.6-19.8-8.6
			c-14.9,0-26.9,12.1-26.9,26.9c0,2.4,0.3,4.8,0.9,7.1c-8.3,2-14.4,9.4-14.4,18.2c0,7.1,4,13.3,9.9,16.5c1.4-0.8,2.9-1.4,4.6-1.7
			C194.4,407.4,194.1,405,194.1,402.6z"/>
		<path style="fill:#E8F0F6;" d="M218.1,396.3C218.1,396.3,218.1,396.3,218.1,396.3c4.1,9.4,13.3,15.9,24.1,15.9
			c7.6,0,14.4-3.2,19.2-8.4c5.8,8.7,15.7,14.5,26.9,14.5c13.2,0,24.6-8,29.6-19.4c4.5,3.1,9.9,4.9,15.7,4.9
			c10.4,0,19.5-5.7,24.2-14.2c3.4,7.9,11.2,13.4,20.3,13.4c5.6,0,10.7-2.1,14.6-5.5c-3.9-3.4-9-5.5-14.6-5.5c-0.2,0-0.4,0-0.6,0
			c-2.4-9.6-11-16.7-21.4-16.7c-3,0-5.9,0.6-8.5,1.7c-2.9-12.2-13.9-21.3-27-21.3c-3.1,0-6.1,0.5-8.9,1.5
			c-6.5-11.8-19.1-19.8-33.6-19.8c-21.2,0-38.3,17.2-38.3,38.3c0,3,0.3,5.9,1,8.6c-4.9-5.3-11.9-8.6-19.8-8.6
			c-14.9,0-26.9,12.1-26.9,26.9c0,2.4,0.3,4.8,0.9,7.1c-1.6,0.4-3.1,1-4.6,1.7c2.7,1.4,5.7,2.2,8.9,2.2
			C209.2,413.6,217.3,406,218.1,396.3z"/>
		<path style="fill:#A1D2F0;" d="M289.6,424.1c-10.6,0-20.6-4.6-27.5-12.4c-5.3,4-11.8,6.3-18.6,6.3c-8.9,0-17.1-3.8-22.8-10.2
			c-4.1,6.9-11.6,11.5-20,11.5c-12.8,0-23.3-10.4-23.3-23.3c0-9.3,5.5-17.5,13.7-21.2c-0.2-1.4-0.3-2.7-0.3-4.1
			c0-17.3,14.1-31.4,31.4-31.4c5,0,9.9,1.2,14.3,3.4c0.6-23.1,19.6-41.8,42.8-41.8c14.4,0,27.7,7.2,35.6,19.1
			c2.2-0.5,4.5-0.7,6.8-0.7c13.4,0,25.1,8.1,29.9,20.2c1.8-0.4,3.7-0.6,5.6-0.6c11.1,0,20.8,6.8,24.7,16.9
			c13.4,1.3,23.8,12.7,23.8,26.4c0,14.6-11.9,26.5-26.5,26.5c-8.1,0-15.6-3.7-20.6-9.8c-6,6.7-14.7,10.6-23.9,10.6
			c-4.9,0-9.6-1.1-13.9-3.1C314.4,417.3,302.5,424.1,289.6,424.1z M262.6,400.6c0.1,0,0.2,0,0.4,0c1.4,0.1,2.6,0.9,3.4,2
			c5.2,7.8,13.8,12.5,23.2,12.5c11.1,0,21-6.6,25.4-16.7c0.5-1.2,1.6-2.2,2.9-2.5c1.3-0.4,2.7-0.1,3.8,0.6c3.9,2.7,8.4,4.1,13.2,4.1
			c8.4,0,16.2-4.6,20.3-11.9c0.8-1.5,2.4-2.4,4.2-2.3c1.7,0.1,3.2,1.1,3.9,2.7c2.8,6.5,9.1,10.6,16.1,10.6c9.7,0,17.5-7.9,17.5-17.5
			s-7.9-17.5-17.5-17.5c-0.1,0-0.2,0-0.3,0l-0.2,0c-2.1,0.1-4-1.4-4.5-3.4c-1.9-7.8-8.9-13.3-17-13.3c-2.3,0-4.6,0.5-6.8,1.4
			c-1.2,0.5-2.6,0.5-3.8-0.1c-1.2-0.6-2-1.7-2.3-3c-2.5-10.5-11.8-17.8-22.6-17.8c-2.5,0-5,0.4-7.4,1.2c-2.1,0.7-4.3-0.2-5.4-2.1
			c-6-10.8-17.3-17.5-29.6-17.5c-18.7,0-33.8,15.2-33.8,33.8c0,2.5,0.3,5.1,0.9,7.6c0.5,2-0.5,4-2.3,5c-1.8,1-4,0.6-5.4-0.9
			c-4.2-4.6-10.2-7.2-16.4-7.2c-12.4,0-22.4,10.1-22.4,22.4c0,2,0.3,4,0.8,5.9c0.3,1.2,0.1,2.4-0.5,3.5c-0.6,1-1.6,1.8-2.8,2.1
			c-6.4,1.5-10.9,7.2-10.9,13.9c0,7.9,6.4,14.3,14.3,14.3c7.4,0,13.6-5.8,14.2-13.1c0.1-1.2,0.7-2.3,1.6-3.1c0.9-0.8,2.2-1.1,3.4-1
			c0,0,0.1,0,0.2,0c1.6,0.2,2.9,1.2,3.6,2.7c3.4,8,11.2,13.2,19.9,13.2c6,0,11.8-2.5,15.9-7C260.2,401.1,261.4,400.6,262.6,400.6z"
			/>
	</g>
	<g>
		<g>
			<path style="fill:#FFFFFF;" d="M-148.5,493.6c6,0,11.5,1.8,16.2,4.8c6.3-11.2,18.3-18.8,32.2-18.8c4,0,7.8,0.6,11.3,1.8
				c0-0.7-0.1-1.4-0.1-2c0-24.3,19.7-44,44-44c10.3,0,19.8,3.6,27.4,9.6c0-0.1,0-0.3,0-0.4c0-32.5,26.4-58.9,58.9-58.9
				s58.9,26.4,58.9,58.9c0,1.8-0.1,3.5-0.2,5.3c0.1,0,0.2,0,0.2,0c13.5,0,25.6,5.3,34.6,14c3.5-1.1,7.2-1.7,11.1-1.7
				c15,0,27.9,8.7,34,21.3c2.4-5,3.8-10.6,3.8-16.5c0-20.9-16.9-37.8-37.8-37.8c-3.9,0-7.6,0.6-11.1,1.7c-9-8.6-21.2-14-34.6-14
				c-0.1,0-0.2,0-0.2,0c0.2-1.7,0.2-3.5,0.2-5.3c0-32.5-26.4-58.9-58.9-58.9s-58.9,26.4-58.9,58.9c0,0.1,0,0.3,0,0.4
				c-7.5-6-17-9.6-27.4-9.6c-24.3,0-44,19.7-44,44c0,0.7,0.1,1.4,0.1,2c-3.6-1.2-7.4-1.8-11.3-1.8c-13.8,0-25.8,7.6-32.2,18.8
				c-4.7-3-10.2-4.8-16.2-4.8c-16.5,0-29.9,13.4-29.9,29.9c0,6.1,1.8,11.8,5,16.5C-168.1,498.9-159,493.6-148.5,493.6z"/>
			<path style="fill:#E8F0F6;" d="M-148.5,520.4c9.1,0,17.2-4.1,22.7-10.4c6.6,6.4,15.7,10.4,25.7,10.4c14.1,0,26.4-7.9,32.6-19.6
				c6.4,12.9,19.7,21.8,35.1,21.8c16.8,0,31.1-10.6,36.7-25.4c3.2,17.7,18.6,31.1,37.2,31.1c14,0,26.1-7.6,32.7-18.9
				c7.6,4.7,16.6,7.5,26.2,7.5c13.5,0,25.6-5.3,34.6-14c3.5,1.1,7.2,1.7,11.1,1.7c15,0,27.9-8.7,34-21.3c-6.1-12.6-19-21.3-34-21.3
				c-3.9,0-7.6,0.6-11.1,1.7c-9-8.6-21.2-14-34.6-14c-0.1,0-0.2,0-0.2,0c0.2-1.7,0.2-3.5,0.2-5.3c0-32.5-26.4-58.9-58.9-58.9
				s-58.9,26.4-58.9,58.9c0,0.1,0,0.3,0,0.4c-7.5-6-17-9.6-27.4-9.6c-24.3,0-44,19.7-44,44c0,0.7,0.1,1.4,0.1,2
				c-3.6-1.2-7.4-1.8-11.3-1.8c-13.8,0-25.8,7.6-32.2,18.8c-4.7-3-10.2-4.8-16.2-4.8c-10.4,0-19.6,5.3-24.9,13.4
				C-168.1,515.1-159,520.4-148.5,520.4z"/>
		</g>
		<path style="fill:#A1D2F0;" d="M42.5,534c-16.7,0-31.3-9.7-38.2-24.1c-8.1,11.4-21.3,18.5-35.6,18.5c-14.2,0-27.1-6.7-35.3-17.9
			c-7.8,9.8-19.6,15.7-32.4,15.7c-9.3,0-18.2-3.1-25.4-8.8c-6.3,5.6-14.4,8.8-22.9,8.8c-19,0-34.4-15.4-34.4-34.4
			c0-19,15.4-34.4,34.4-34.4c5.1,0,10.1,1.1,14.7,3.3c7.7-10.8,20.3-17.4,33.7-17.4c2.3,0,4.6,0.2,6.9,0.6
			c1.9-25.1,22.9-44.9,48.4-44.9c8.3,0,16.2,2,23.3,6c3.8-31.3,30.6-55.7,62.9-55.7c35,0,63.4,28.4,63.4,63.4c0,0.3,0,0.6,0,1
			c11.6,1,22.5,5.6,31.4,13.3c3.2-0.8,6.5-1.2,9.9-1.2c23.3,0,42.3,19,42.3,42.3c0,23.3-19,42.3-42.3,42.3c-3.3,0-6.6-0.4-9.9-1.2
			c-10,8.7-22.6,13.5-35.8,13.5c-8.6,0-17.1-2.1-24.7-6C68.8,527.5,56.1,534,42.5,534z M5.4,494c0.1,0,0.3,0,0.4,0
			c2,0.2,3.7,1.7,4,3.7c2.8,15.9,16.6,27.4,32.7,27.4c11.8,0,22.8-6.4,28.8-16.6c0.6-1,1.6-1.8,2.8-2.1c1.2-0.3,2.4-0.1,3.5,0.5
			c7.2,4.4,15.5,6.8,23.8,6.8c11.8,0,23-4.5,31.5-12.7c1.2-1.1,2.9-1.5,4.4-1.1c3.2,1,6.4,1.5,9.7,1.5c18.4,0,33.3-14.9,33.3-33.3
			s-14.9-33.3-33.3-33.3c-3.3,0-6.6,0.5-9.7,1.5c-1.6,0.5-3.3,0.1-4.4-1.1c-8.5-8.2-19.7-12.7-31.4-12.7c-0.1,0-0.2,0-0.3,0
			c-1.3,0-2.5-0.5-3.4-1.4c-0.9-0.9-1.3-2.2-1.2-3.5c0.2-1.8,0.2-3.4,0.2-4.9c0-30-24.4-54.4-54.4-54.4c-30,0-54.4,24.4-54.4,54.4
			l0,0.4c0,1.7-1,3.3-2.5,4.1c-1.6,0.8-3.4,0.6-4.8-0.5c-7.1-5.6-15.6-8.6-24.6-8.6c-21.8,0-39.5,17.7-39.5,39.5c0,0.3,0,0.7,0,1
			c0,0.3,0,0.6,0,0.8c0.1,1.5-0.6,2.9-1.8,3.8c-1.2,0.9-2.7,1.2-4.1,0.7c-3.2-1-6.6-1.6-9.9-1.6c-11.7,0-22.5,6.3-28.2,16.5
			c-0.6,1.1-1.6,1.9-2.8,2.2c-1.2,0.3-2.5,0.1-3.5-0.6c-4.1-2.7-8.9-4.1-13.7-4.1c-14,0-25.4,11.4-25.4,25.4
			c0,14,11.4,25.4,25.4,25.4c7.4,0,14.4-3.2,19.2-8.9c0.8-0.9,2-1.5,3.2-1.6c1.2-0.1,2.4,0.4,3.3,1.3c6.1,5.9,14.1,9.2,22.5,9.2
			c12,0,22.9-6.6,28.6-17.2c0.8-1.5,2.3-2.4,4-2.4c0,0,0,0,0.1,0c1.7,0,3.2,1,4,2.5c5.9,11.9,17.8,19.3,31.1,19.3
			c14.4,0,27.4-9.1,32.4-22.5C1.8,495.1,3.5,494,5.4,494z"/>
	</g>
	<g>
		<path style="fill:#FFFFFF;" d="M588.9,547.2C588.9,547.2,588.9,547.2,588.9,547.2c0-0.4,0-0.8,0-1.2c0-22.4,18.2-40.6,40.6-40.6
			c12.3,0,23.3,5.5,30.8,14.1c6.1-9.9,17.1-16.4,29.6-16.4c17.9,0,32.6,13.4,34.6,30.8c4.3-1.9,9.1-2.9,14.2-2.9
			c13.9,0,26,7.9,32,19.5c2.6-4.9,4-10.6,4-16.5c0-19.9-16.1-36-36-36c-5,0-9.8,1-14.2,2.9c-2-17.3-16.7-30.8-34.6-30.8
			c-12.5,0-23.4,6.6-29.6,16.4c-7.4-8.6-18.5-14.1-30.8-14.1c-22.4,0-40.6,18.2-40.6,40.6c0,0.4,0,0.8,0,1.2c0,0,0,0,0,0
			c-25.6,0-46.4,20.8-46.4,46.4c0,5.8,1.1,11.4,3,16.5C552.2,559.6,569.1,547.2,588.9,547.2z"/>
		<path style="fill:#E8F0F6;" d="M588.9,607c7.6,0,14.7-1.8,21-5c6.5,14.6,21.1,24.8,38.2,24.8c16.1,0,30-9.1,37-22.4
			c6.4,10,17.6,16.6,30.3,16.6c19.9,0,36-16.1,36-36c0-5.8-1.4-11.3-3.9-16.2c10-2.6,18.4-9.4,23.1-18.4c-6-11.6-18-19.5-32-19.5
			c-5,0-9.8,1-14.2,2.9c-2-17.3-16.7-30.8-34.6-30.8c-12.5,0-23.4,6.6-29.6,16.4c-7.4-8.6-18.5-14.1-30.8-14.1
			c-22.4,0-40.6,18.2-40.6,40.6c0,0.4,0,0.8,0,1.2c0,0,0,0,0,0c-19.8,0-36.7,12.4-43.4,29.9C552.2,594.6,569.1,607,588.9,607z"/>
		<path style="fill:#A1D2F0;" d="M649.4,632.5c-16.7,0-32-9-40.2-23.4c-6,2.4-12.4,3.7-19,3.7c-28.1,0-50.9-22.8-50.9-50.9
			c0-26.6,20.5-48.5,46.5-50.7c1.6-23.4,21.2-42,45-42c11.3,0,22,4.2,30.3,11.7c7.4-8.9,18.3-14,30.1-14c18.1,0,33.6,12.3,38,29.3
			c3.5-1,7.1-1.4,10.7-1.4c22.3,0,40.5,18.2,40.5,40.5c0,16.8-10.3,31.6-25.5,37.6c1.5,4.3,2.3,8.8,2.3,13.4
			c0,22.3-18.2,40.5-40.5,40.5c-11.5,0-22.3-4.8-29.9-13.2C678.1,625.4,664.3,632.5,649.4,632.5z M611.2,598.7c0.5,0,1,0.1,1.5,0.3
			c1.2,0.4,2.1,1.3,2.6,2.4c6,13.4,19.4,22.1,34.1,22.1c13.9,0,26.6-7.7,33-20c0.7-1.4,2.2-2.3,3.8-2.4c1.6-0.1,3.1,0.7,4,2.1
			c5.8,9.1,15.7,14.5,26.5,14.5c17.4,0,31.5-14.1,31.5-31.5c0-5-1.1-9.7-3.4-14.2c-0.6-1.2-0.6-2.7-0.1-3.9s1.7-2.2,3-2.5
			c13.9-3.6,23.7-16.1,23.7-30.5c0-17.4-14.1-31.5-31.5-31.5c-4.3,0-8.5,0.9-12.4,2.5c-1.3,0.6-2.8,0.5-4-0.2
			c-1.2-0.7-2.1-2-2.2-3.4c-1.8-15.3-14.7-26.8-30.1-26.8c-10.5,0-20.2,5.4-25.8,14.3c-0.8,1.2-2,2-3.5,2.1
			c-1.4,0.1-2.8-0.5-3.8-1.5c-6.9-8-16.9-12.6-27.4-12.6c-19.9,0-36.1,16.2-36.1,36.1c0,0.2,0,0.5,0,0.7l0,0.4
			c0,1.2-0.4,2.4-1.3,3.3c-0.8,0.9-2,1.4-3.2,1.4c0,0-0.1,0-0.1,0c-23.1,0-41.9,18.8-41.9,41.9c0,23.1,18.8,41.9,41.9,41.9
			c6.7,0,13.1-1.5,19-4.6C609.8,598.9,610.5,598.7,611.2,598.7z"/>
	</g>
	<g>
		<path style="fill:#FFFFFF;" d="M553.4,315.9c5-14.8,19-25.5,35.5-25.5c20.7,0,37.5,16.8,37.5,37.5c0,2-0.2,4-0.5,5.9
			c3.1-0.7,6.2-1.1,9.5-1.1c17,0,31.6,10.3,38,24.9c2.2-5.1,3.4-10.6,3.4-16.5c0-22.9-18.5-41.4-41.4-41.4c-3.3,0-6.5,0.4-9.5,1.1
			c0.3-1.9,0.5-3.9,0.5-5.9c0-20.7-16.8-37.5-37.5-37.5c-16.5,0-30.5,10.7-35.5,25.5c-17.5,4-30.6,19.8-30.6,38.5
			c0,5.9,1.3,11.5,3.6,16.5C531.5,326.9,541.4,318.7,553.4,315.9z"/>
		<path style="fill:#E8F0F6;" d="M524.4,354.5c0,21,17,38,38,38c3.9,0,7.7-0.6,11.3-1.7c5.5,6.4,13.7,10.5,22.8,10.5
			c13.1,0,24.2-8.4,28.3-20.1c3.4,0.9,7,1.4,10.8,1.4c17,0,31.6-10.3,38-24.9c-6.4-14.7-21-24.9-38-24.9c-3.3,0-6.5,0.4-9.5,1.1
			c0.3-1.9,0.5-3.9,0.5-5.9c0-20.7-16.8-37.5-37.5-37.5c-16.5,0-30.5,10.7-35.5,25.5c-12,2.8-22,11-27,22c0.3,0.6,0.6,1.3,0.9,1.9
			C525.4,344.3,524.4,349.3,524.4,354.5z"/>
		<path style="fill:#A1D2F0;" d="M596.5,405.8c-9.1,0-17.8-3.6-24.2-9.9c-3.2,0.8-6.5,1.2-9.9,1.2c-23.4,0-42.5-19.1-42.5-42.5
			c0-5,0.9-9.8,2.5-14.5c-2.7-5.8-4.1-12.2-4.1-18.6c0-19.8,12.9-36.9,31.7-42.3c6.4-15.8,21.8-26.2,38.9-26.2c23.2,0,42,18.9,42,42
			c0,0.2,0,0.3,0,0.5c1.5-0.2,3-0.2,4.6-0.2c25.3,0,45.9,20.6,45.9,45.9s-20.6,45.9-45.9,45.9c-2.7,0-5.4-0.2-8.1-0.7
			C621.8,398.1,609.7,405.8,596.5,405.8z M573.6,386.3c1.3,0,2.5,0.6,3.4,1.6c4.9,5.7,11.9,8.9,19.4,8.9c10.8,0,20.5-6.9,24.1-17.1
			c0.8-2.2,3.1-3.5,5.4-2.9c3.1,0.8,6.4,1.3,9.6,1.3c20.4,0,36.9-16.6,36.9-36.9s-16.6-36.9-36.9-36.9c-2.8,0-5.7,0.3-8.5,1
			c-1.5,0.3-3-0.1-4.1-1.1c-1.1-1-1.6-2.5-1.4-4c0.3-1.7,0.4-3.5,0.4-5.2c0-18.2-14.8-33-33-33c-14.2,0-26.7,9-31.3,22.4
			c-0.5,1.5-1.7,2.6-3.2,2.9c-16,3.7-27.1,17.7-27.1,34.1c0,5.7,1.4,11.2,4,16.3c0.6,1.2,0.7,2.6,0.2,3.8c-1.7,4.1-2.6,8.5-2.6,12.9
			c0,18.5,15,33.5,33.5,33.5c3.4,0,6.8-0.5,10-1.5C572.8,386.3,573.2,386.3,573.6,386.3z"/>
	</g>
	<g>
		<path style="fill:#FFFFFF;" d="M780.3,403.3c10.1,0,18.8,6.1,22.6,14.9c2.4-3.8,3.8-8.3,3.8-13.2c0-13.6-11-24.6-24.6-24.6
			c-13.6,0-24.6,11-24.6,24.6c0,3.5,0.7,6.7,2,9.7C763.9,407.9,771.5,403.3,780.3,403.3z"/>
		<path style="fill:#E8F0F6;" d="M782.1,429.6c8.7,0,16.4-4.6,20.8-11.4c-3.8-8.7-12.5-14.9-22.6-14.9c-8.7,0-16.4,4.6-20.8,11.4
			C763.3,423.5,772,429.6,782.1,429.6z"/>
		<path style="fill:#A1D2F0;" d="M782.1,434.1c-16,0-29.1-13-29.1-29.1s13-29.1,29.1-29.1c16,0,29.1,13,29.1,29.1
			S798.1,434.1,782.1,434.1z M782.1,384.9c-11.1,0-20.1,9-20.1,20.1s9,20.1,20.1,20.1c11.1,0,20.1-9,20.1-20.1
			S793.2,384.9,782.1,384.9z"/>
	</g>
	<g>
		<path style="fill:#FFFFFF;" d="M429.4,314.5c3.7,0,7.2,1,10.3,2.8c3-1.8,6.5-2.8,10.3-2.8c6.6,0,12.5,3.2,16.3,8
			c2.7-3.5,4.3-7.8,4.3-12.5c0-11.3-9.2-20.5-20.5-20.5c-3.7,0-7.2,1-10.3,2.8c-3-1.8-6.5-2.8-10.3-2.8c-11.3,0-20.5,9.2-20.5,20.5
			c0,4.7,1.6,9.1,4.3,12.5C416.9,317.6,422.7,314.5,429.4,314.5z"/>
		<path style="fill:#E8F0F6;" d="M429.4,330.5c3.7,0,7.2-1,10.3-2.8c3,1.8,6.5,2.8,10.3,2.8c6.6,0,12.5-3.2,16.3-8
			c-3.8-4.9-9.6-8-16.3-8c-3.7,0-7.2,1-10.3,2.8c-3-1.8-6.5-2.8-10.3-2.8c-6.6,0-12.5,3.2-16.3,8
			C416.9,327.4,422.7,330.5,429.4,330.5z"/>
		<path style="fill:#A1D2F0;" d="M449.9,335c-3.5,0-7-0.8-10.3-2.2c-3.2,1.5-6.7,2.2-10.3,2.2c-13.8,0-25-11.2-25-25
			c0-13.8,11.2-25,25-25c3.5,0,7,0.8,10.3,2.2c3.2-1.5,6.7-2.2,10.3-2.2c13.8,0,25,11.2,25,25C475,323.8,463.7,335,449.9,335z
			 M439.6,323.2c0.8,0,1.6,0.2,2.3,0.6c2.4,1.4,5.2,2.2,8,2.2c8.8,0,16-7.2,16-16s-7.2-16-16-16c-2.8,0-5.6,0.7-8,2.2
			c-1.4,0.8-3.1,0.8-4.5,0c-2.4-1.4-5.2-2.2-8-2.2c-8.8,0-16,7.2-16,16s7.2,16,16,16c2.8,0,5.6-0.7,8-2.2
			C438.1,323.4,438.9,323.2,439.6,323.2z"/>
	</g>
	<g>
		<path style="fill:#FFFFFF;" d="M378.8,723.5c-0.2-1.4-0.4-2.8-0.4-4.3c0-14.2,11.6-25.8,25.8-25.8c3.3,0,6.5,0.7,9.5,1.8
			c3.5-25.1,25-44.5,51.1-44.5c25.4,0,46.5,18.3,50.8,42.5c6.8-10.7,18.7-17.8,32.2-17.8c21.1,0,38.1,17.1,38.1,38.1
			c0,3.8-0.6,7.4-1.6,10.9c5.7,1.8,10.7,5.5,14.2,10.2c3.4-4.6,5.4-10.3,5.4-16.5c0-12.5-8.2-23.1-19.5-26.7c1-3.4,1.6-7.1,1.6-10.9
			c0-21.1-17.1-38.1-38.1-38.1c-13.6,0-25.5,7.1-32.2,17.8c-4.3-24.2-25.4-42.5-50.8-42.5c-26.1,0-47.6,19.3-51.1,44.5
			c-2.9-1.2-6.1-1.8-9.5-1.8c-14.3,0-25.8,11.6-25.8,25.8c0,1.5,0.1,2.9,0.4,4.3c-9.6,5.5-16.1,15.9-16.1,27.7
			c0,6,1.7,11.7,4.6,16.5C370.2,730.1,374.1,726.2,378.8,723.5z"/>
		<path style="fill:#E8F0F6;" d="M394.7,750.2h141.4c9,0,17.1-3.7,22.9-9.7c4.7,3.6,10.6,5.7,16.9,5.7c9.3,0,17.6-4.5,22.7-11.5
			c-3.5-4.8-8.4-8.4-14.2-10.2c1-3.4,1.6-7.1,1.6-10.9c0-21.1-17.1-38.1-38.1-38.1c-13.6,0-25.5,7.1-32.2,17.8
			c-4.3-24.2-25.4-42.5-50.8-42.5c-26.1,0-47.6,19.3-51.1,44.5c-2.9-1.2-6.1-1.8-9.5-1.8c-14.3,0-25.8,11.6-25.8,25.8
			c0,1.5,0.1,2.9,0.4,4.3c-4.7,2.7-8.7,6.6-11.5,11.2C372.9,744,383.1,750.2,394.7,750.2z"/>
		<path style="fill:#A1D2F0;" d="M537.3,756H396c-20.1,0-36.5-16.4-36.5-36.5c0-12,6-23.2,15.8-30c0-0.7-0.1-1.3-0.1-2
			c0-16.7,13.6-30.3,30.3-30.3c2,0,4,0.2,6,0.6c5.9-25,28.5-43.2,54.6-43.2c24.1,0,45,15.2,52.8,37.2c7.9-8,18.7-12.5,30.2-12.5
			c23.5,0,42.6,19.1,42.6,42.6c0,2.7-0.3,5.4-0.8,8.1c11.4,5.3,18.7,16.7,18.7,29.5c0,17.9-14.6,32.5-32.5,32.5
			c-5.9,0-11.5-1.6-16.5-4.5C554.1,753,546,756,537.3,756z M405.5,666.2c-11.7,0-21.3,9.6-21.3,21.3c0,1.1,0.1,2.2,0.3,3.5
			c0.3,1.9-0.6,3.7-2.2,4.6c-8.5,4.9-13.8,14-13.8,23.8c0,15.1,12.3,27.5,27.5,27.5h141.4c7.5,0,14.4-2.9,19.7-8.3
			c1.6-1.6,4.1-1.8,5.9-0.4c4.1,3.2,9.1,4.8,14.2,4.8c13,0,23.5-10.6,23.5-23.5c0-10.3-6.6-19.3-16.4-22.4c-2.3-0.7-3.6-3.2-3-5.6
			c0.9-3.1,1.4-6.4,1.4-9.6c0-18.6-15.1-33.6-33.6-33.6c-11.6,0-22.2,5.9-28.4,15.7c-1,1.6-2.9,2.4-4.7,2c-1.8-0.4-3.2-1.8-3.6-3.6
			c-4-22.5-23.5-38.8-46.4-38.8c-23.4,0-43.4,17.4-46.6,40.6c-0.2,1.4-1,2.6-2.2,3.3s-2.6,0.8-3.9,0.3
			C410.8,666.7,408.2,666.2,405.5,666.2z"/>
	</g>
	<g>
		<path style="fill:#FFFFFF;" d="M733.5,334.7c0-14.9,12.1-26.9,26.9-26.9c7.8,0,14.8,3.3,19.8,8.6c-0.6-2.8-1-5.7-1-8.6
			c0-21.2,17.2-38.3,38.3-38.3c14.5,0,27,8,33.6,19.8c2.8-0.9,5.8-1.5,8.9-1.5c13.1,0,24.1,9.1,27,21.3c2.6-1.1,5.5-1.7,8.5-1.7
			c10.3,0,19,7.1,21.4,16.7c0.2,0,0.4,0,0.6,0c5.6,0,10.7,2.1,14.6,5.5c4.6-4,7.4-9.9,7.4-16.5c0-12.2-9.9-22-22-22
			c-0.2,0-0.4,0-0.6,0c-2.4-9.6-11-16.7-21.4-16.7c-3,0-5.9,0.6-8.5,1.7c-2.9-12.2-13.9-21.3-27-21.3c-3.1,0-6.1,0.5-8.9,1.5
			c-6.5-11.8-19.1-19.8-33.6-19.8c-21.2,0-38.3,17.2-38.3,38.3c0,3,0.3,5.9,1,8.6c-4.9-5.3-11.9-8.6-19.8-8.6
			c-14.9,0-26.9,12.1-26.9,26.9c0,2.4,0.3,4.8,0.9,7.1c-8.3,2-14.4,9.4-14.4,18.2c0,7.1,4,13.3,9.9,16.5c1.4-0.8,2.9-1.4,4.6-1.7
			C733.8,339.5,733.5,337.1,733.5,334.7z"/>
		<path style="fill:#E8F0F6;" d="M757.5,328.5C757.5,328.5,757.6,328.5,757.5,328.5c4.1,9.4,13.3,15.9,24.1,15.9
			c7.6,0,14.4-3.2,19.2-8.4c5.8,8.7,15.7,14.5,26.9,14.5c13.2,0,24.6-8,29.6-19.4c4.5,3.1,9.9,4.9,15.7,4.9
			c10.4,0,19.5-5.7,24.2-14.2c3.4,7.9,11.2,13.4,20.3,13.4c5.6,0,10.7-2.1,14.6-5.5c-3.9-3.4-9-5.5-14.6-5.5c-0.2,0-0.4,0-0.6,0
			c-2.4-9.6-11-16.7-21.4-16.7c-3,0-5.9,0.6-8.5,1.7c-2.9-12.2-13.9-21.3-27-21.3c-3.1,0-6.1,0.5-8.9,1.5
			c-6.5-11.8-19.1-19.8-33.6-19.8c-21.2,0-38.3,17.2-38.3,38.3c0,3,0.3,5.9,1,8.6c-4.9-5.3-11.9-8.6-19.8-8.6
			c-14.9,0-26.9,12.1-26.9,26.9c0,2.4,0.3,4.8,0.9,7.1c-1.6,0.4-3.1,1-4.6,1.7c2.7,1.4,5.7,2.2,8.9,2.2
			C748.7,345.8,756.7,338.1,757.5,328.5z"/>
		<path style="fill:#A1D2F0;" d="M829,356.3c-10.6,0-20.6-4.6-27.5-12.4c-5.3,4-11.8,6.3-18.6,6.3c-8.9,0-17.1-3.8-22.8-10.2
			c-4.1,6.9-11.6,11.5-20,11.5c-12.8,0-23.3-10.4-23.3-23.3c0-9.3,5.5-17.5,13.7-21.2c-0.2-1.4-0.3-2.7-0.3-4.1
			c0-17.3,14.1-31.4,31.4-31.4c5,0,9.9,1.2,14.3,3.4c0.6-23.1,19.6-41.8,42.8-41.8c14.4,0,27.7,7.2,35.6,19.1
			c2.2-0.5,4.5-0.7,6.8-0.7c13.4,0,25.1,8.1,29.9,20.2c1.8-0.4,3.7-0.6,5.6-0.6c11.1,0,20.8,6.8,24.7,16.9
			c13.4,1.3,23.8,12.7,23.8,26.4c0,14.6-11.9,26.5-26.5,26.5c-8.1,0-15.6-3.7-20.6-9.8c-6,6.7-14.7,10.6-23.9,10.6
			c-4.9,0-9.6-1.1-13.9-3.1C853.8,349.5,842,356.3,829,356.3z M802.1,332.8c0.1,0,0.2,0,0.4,0c1.4,0.1,2.6,0.9,3.4,2
			c5.2,7.8,13.8,12.5,23.2,12.5c11.1,0,21-6.6,25.4-16.7c0.5-1.2,1.6-2.2,2.9-2.5c1.3-0.4,2.7-0.1,3.8,0.6c3.9,2.7,8.4,4.1,13.2,4.1
			c8.4,0,16.2-4.6,20.3-11.9c0.8-1.5,2.4-2.4,4.2-2.3c1.7,0.1,3.2,1.1,3.9,2.7c2.8,6.5,9.1,10.6,16.1,10.6c9.7,0,17.5-7.9,17.5-17.5
			s-7.9-17.5-17.5-17.5c-0.1,0-0.2,0-0.3,0l-0.2,0c-2.1,0.1-4-1.4-4.5-3.4c-1.9-7.8-8.9-13.3-17-13.3c-2.3,0-4.6,0.5-6.8,1.4
			c-1.2,0.5-2.6,0.5-3.8-0.1c-1.2-0.6-2-1.7-2.3-3c-2.5-10.5-11.8-17.8-22.6-17.8c-2.5,0-5,0.4-7.4,1.2c-2.1,0.7-4.3-0.2-5.4-2.1
			c-6-10.8-17.3-17.5-29.6-17.5c-18.7,0-33.8,15.2-33.8,33.8c0,2.5,0.3,5.1,0.9,7.6c0.5,2-0.5,4-2.3,5s-4,0.6-5.4-0.9
			c-4.2-4.6-10.2-7.2-16.4-7.2c-12.4,0-22.4,10.1-22.4,22.4c0,2,0.3,4,0.8,5.9c0.3,1.2,0.1,2.4-0.5,3.5c-0.6,1-1.6,1.8-2.8,2.1
			c-6.4,1.5-10.9,7.2-10.9,13.9c0,7.9,6.4,14.3,14.3,14.3c7.4,0,13.6-5.8,14.2-13.1c0.1-1.2,0.7-2.3,1.6-3.1c0.9-0.8,2.2-1.1,3.4-1
			c0,0,0.1,0,0.2,0c1.6,0.2,2.9,1.2,3.6,2.7c3.4,8,11.2,13.2,19.9,13.2c6,0,11.8-2.5,15.9-7C799.6,333.3,800.8,332.8,802.1,332.8z"
			/>
	</g>
	<g>
		<g>
			<path style="fill:#FFFFFF;" d="M851.5,493.6c6,0,11.5,1.8,16.2,4.8c6.3-11.2,18.3-18.8,32.2-18.8c4,0,7.8,0.6,11.3,1.8
				c0-0.7-0.1-1.4-0.1-2c0-24.3,19.7-44,44-44c10.3,0,19.8,3.6,27.4,9.6c0-0.1,0-0.3,0-0.4c0-32.5,26.4-58.9,58.9-58.9
				s58.9,26.4,58.9,58.9c0,1.8-0.1,3.5-0.2,5.3c0.1,0,0.2,0,0.2,0c13.5,0,25.6,5.3,34.6,14c3.5-1.1,7.2-1.7,11.1-1.7
				c15,0,27.9,8.7,34,21.3c2.4-5,3.8-10.6,3.8-16.5c0-20.9-16.9-37.8-37.8-37.8c-3.9,0-7.6,0.6-11.1,1.7c-9-8.6-21.2-14-34.6-14
				c-0.1,0-0.2,0-0.2,0c0.2-1.7,0.2-3.5,0.2-5.3c0-32.5-26.4-58.9-58.9-58.9s-58.9,26.4-58.9,58.9c0,0.1,0,0.3,0,0.4
				c-7.5-6-17-9.6-27.4-9.6c-24.3,0-44,19.7-44,44c0,0.7,0.1,1.4,0.1,2c-3.6-1.2-7.4-1.8-11.3-1.8c-13.8,0-25.8,7.6-32.2,18.8
				c-4.7-3-10.2-4.8-16.2-4.8c-16.5,0-29.9,13.4-29.9,29.9c0,6.1,1.8,11.8,5,16.5C831.9,498.9,841,493.6,851.5,493.6z"/>
			<path style="fill:#E8F0F6;" d="M851.5,520.4c9.1,0,17.2-4.1,22.7-10.4c6.6,6.4,15.7,10.4,25.7,10.4c14.1,0,26.4-7.9,32.6-19.6
				c6.4,12.9,19.7,21.8,35.1,21.8c16.8,0,31.1-10.6,36.7-25.4c3.2,17.7,18.6,31.1,37.2,31.1c14,0,26.1-7.6,32.7-18.9
				c7.6,4.7,16.6,7.5,26.2,7.5c13.5,0,25.6-5.3,34.6-14c3.5,1.1,7.2,1.7,11.1,1.7c15,0,27.9-8.7,34-21.3c-6.1-12.6-19-21.3-34-21.3
				c-3.9,0-7.6,0.6-11.1,1.7c-9-8.6-21.2-14-34.6-14c-0.1,0-0.2,0-0.2,0c0.2-1.7,0.2-3.5,0.2-5.3c0-32.5-26.4-58.9-58.9-58.9
				s-58.9,26.4-58.9,58.9c0,0.1,0,0.3,0,0.4c-7.5-6-17-9.6-27.4-9.6c-24.3,0-44,19.7-44,44c0,0.7,0.1,1.4,0.1,2
				c-3.6-1.2-7.4-1.8-11.3-1.8c-13.8,0-25.8,7.6-32.2,18.8c-4.7-3-10.2-4.8-16.2-4.8c-10.4,0-19.6,5.3-24.9,13.4
				C831.9,515.1,841,520.4,851.5,520.4z"/>
		</g>
		<path style="fill:#A1D2F0;" d="M1042.5,534c-16.7,0-31.3-9.7-38.2-24.1c-8.1,11.4-21.3,18.5-35.6,18.5c-14.2,0-27.1-6.7-35.3-17.9
			c-7.8,9.8-19.6,15.7-32.4,15.7c-9.3,0-18.2-3.1-25.4-8.8c-6.3,5.6-14.4,8.8-22.9,8.8c-19,0-34.4-15.4-34.4-34.4
			c0-19,15.4-34.4,34.4-34.4c5.1,0,10.1,1.1,14.7,3.3c7.7-10.8,20.3-17.4,33.7-17.4c2.3,0,4.6,0.2,6.9,0.6
			c1.9-25.1,22.9-44.9,48.4-44.9c8.3,0,16.2,2,23.3,6c3.8-31.3,30.6-55.7,62.9-55.7c35,0,63.4,28.4,63.4,63.4c0,0.3,0,0.6,0,1
			c11.6,1,22.5,5.6,31.4,13.3c3.2-0.8,6.5-1.2,9.9-1.2c23.3,0,42.3,19,42.3,42.3c0,23.3-19,42.3-42.3,42.3c-3.3,0-6.6-0.4-9.9-1.2
			c-10,8.7-22.6,13.5-35.8,13.5c-8.6,0-17.1-2.1-24.7-6C1068.8,527.5,1056.1,534,1042.5,534z M1005.4,494c0.1,0,0.3,0,0.4,0
			c2,0.2,3.7,1.7,4,3.7c2.8,15.9,16.6,27.4,32.7,27.4c11.8,0,22.8-6.4,28.8-16.6c0.6-1,1.6-1.8,2.8-2.1c1.2-0.3,2.4-0.1,3.5,0.5
			c7.2,4.4,15.5,6.8,23.8,6.8c11.8,0,23-4.5,31.5-12.7c1.2-1.1,2.9-1.5,4.4-1.1c3.2,1,6.4,1.5,9.7,1.5c18.4,0,33.3-14.9,33.3-33.3
			s-14.9-33.3-33.3-33.3c-3.3,0-6.6,0.5-9.7,1.5c-1.6,0.5-3.3,0.1-4.4-1.1c-8.5-8.2-19.7-12.7-31.4-12.7c-0.1,0-0.2,0-0.3,0
			c-1.3,0-2.5-0.5-3.4-1.4c-0.9-0.9-1.3-2.2-1.2-3.5c0.2-1.8,0.2-3.4,0.2-4.9c0-30-24.4-54.4-54.4-54.4c-30,0-54.4,24.4-54.4,54.4
			l0,0.4c0,1.7-1,3.3-2.5,4.1c-1.6,0.8-3.4,0.6-4.8-0.5c-7.1-5.6-15.6-8.6-24.6-8.6c-21.8,0-39.5,17.7-39.5,39.5c0,0.3,0,0.7,0,1
			c0,0.3,0,0.6,0,0.8c0.1,1.5-0.6,2.9-1.8,3.8c-1.2,0.9-2.7,1.2-4.1,0.7c-3.2-1-6.6-1.6-9.9-1.6c-11.7,0-22.5,6.3-28.2,16.5
			c-0.6,1.1-1.6,1.9-2.8,2.2c-1.2,0.3-2.5,0.1-3.5-0.6c-4.1-2.7-8.9-4.1-13.7-4.1c-14,0-25.4,11.4-25.4,25.4
			c0,14,11.4,25.4,25.4,25.4c7.4,0,14.4-3.2,19.2-8.9c0.8-0.9,2-1.5,3.2-1.6c1.2-0.1,2.4,0.4,3.3,1.3c6.1,5.9,14.1,9.2,22.5,9.2
			c12,0,22.9-6.6,28.6-17.2c0.8-1.5,2.3-2.4,4-2.4c0,0,0,0,0.1,0c1.7,0,3.2,1,4,2.5c5.9,11.9,17.8,19.3,31.1,19.3
			c14.4,0,27.4-9.1,32.4-22.5C1001.8,495.1,1003.5,494,1005.4,494z"/>
	</g>
	<g>
		<path style="fill:#FFFFFF;" d="M-213.2,658.6c-0.2-1.4-0.4-2.8-0.4-4.3c0-14.2,11.6-25.8,25.8-25.8c3.4,0,6.5,0.7,9.5,1.8
			c3.5-25.1,25-44.5,51.1-44.5c25.4,0,46.5,18.3,50.8,42.5c6.8-10.7,18.7-17.8,32.2-17.8c21.1,0,38.1,17.1,38.1,38.1
			c0,3.8-0.6,7.4-1.6,10.9c5.7,1.8,10.7,5.5,14.2,10.2c3.4-4.6,5.4-10.3,5.4-16.5c0-12.5-8.2-23.1-19.5-26.7c1-3.4,1.6-7.1,1.6-10.9
			c0-21.1-17.1-38.1-38.1-38.1c-13.6,0-25.5,7.1-32.2,17.8c-4.3-24.2-25.4-42.5-50.8-42.5c-26.1,0-47.6,19.3-51.1,44.5
			c-2.9-1.2-6.1-1.8-9.5-1.8c-14.3,0-25.8,11.6-25.8,25.8c0,1.5,0.1,2.9,0.4,4.3c-9.6,5.5-16.1,15.9-16.1,27.7
			c0,6,1.7,11.7,4.6,16.5C-221.8,665.2-217.9,661.3-213.2,658.6z"/>
		<path style="fill:#E8F0F6;" d="M-197.3,685.3h141.4c9,0,17.1-3.7,22.9-9.7c4.7,3.6,10.6,5.7,16.9,5.7c9.3,0,17.6-4.5,22.7-11.5
			c-3.5-4.8-8.4-8.4-14.2-10.2c1-3.4,1.6-7.1,1.6-10.9c0-21.1-17.1-38.1-38.1-38.1c-13.6,0-25.5,7.1-32.2,17.8
			c-4.3-24.2-25.4-42.5-50.8-42.5c-26.1,0-47.6,19.3-51.1,44.5c-2.9-1.2-6.1-1.8-9.5-1.8c-14.3,0-25.8,11.6-25.8,25.8
			c0,1.5,0.1,2.9,0.4,4.3c-4.7,2.7-8.7,6.6-11.5,11.2C-219.1,679.1-208.9,685.3-197.3,685.3z"/>
		<path style="fill:#A1D2F0;" d="M-54.7,691H-196c-20.1,0-36.5-16.4-36.5-36.5c0-12,6-23.2,15.8-30c0-0.7-0.1-1.3-0.1-2
			c0-16.7,13.6-30.3,30.3-30.3c2,0,4,0.2,6,0.6c5.9-25,28.5-43.2,54.6-43.2c24.1,0,45,15.2,52.8,37.2c7.9-8,18.7-12.5,30.2-12.5
			c23.5,0,42.6,19.1,42.6,42.6c0,2.7-0.3,5.4-0.8,8.1c11.4,5.3,18.7,16.7,18.7,29.5c0,17.9-14.6,32.5-32.5,32.5
			c-5.9,0-11.5-1.6-16.5-4.5C-37.9,688.1-46,691-54.7,691z M-186.5,601.3c-11.7,0-21.3,9.6-21.3,21.3c0,1.1,0.1,2.2,0.3,3.5
			c0.3,1.9-0.6,3.7-2.2,4.6c-8.5,4.9-13.8,14-13.8,23.8c0,15.1,12.3,27.5,27.5,27.5h141.4c7.5,0,14.4-2.9,19.7-8.3
			c1.6-1.6,4.1-1.8,5.9-0.4c4.1,3.2,9.1,4.8,14.2,4.8c13,0,23.5-10.6,23.5-23.5c0-10.3-6.6-19.3-16.4-22.4c-2.3-0.7-3.6-3.2-3-5.6
			c0.9-3.1,1.4-6.4,1.4-9.6c0-18.6-15.1-33.6-33.6-33.6c-11.6,0-22.2,5.9-28.4,15.7c-1,1.6-2.9,2.4-4.7,2c-1.8-0.4-3.2-1.8-3.6-3.6
			c-4-22.5-23.5-38.8-46.4-38.8c-23.4,0-43.4,17.4-46.6,40.6c-0.2,1.4-1,2.6-2.2,3.3c-1.2,0.7-2.6,0.8-3.9,0.3
			C-181.2,601.8-183.8,601.3-186.5,601.3z"/>
	</g>
	<g>
		<path style="fill:#FFFFFF;" d="M786.8,658.6c-0.2-1.4-0.4-2.8-0.4-4.3c0-14.2,11.6-25.8,25.8-25.8c3.3,0,6.5,0.7,9.5,1.8
			c3.5-25.1,25-44.5,51.1-44.5c25.4,0,46.5,18.3,50.8,42.5c6.8-10.7,18.7-17.8,32.2-17.8c21.1,0,38.1,17.1,38.1,38.1
			c0,3.8-0.6,7.4-1.6,10.9c5.7,1.8,10.7,5.5,14.2,10.2c3.4-4.6,5.4-10.3,5.4-16.5c0-12.5-8.2-23.1-19.5-26.7c1-3.4,1.6-7.1,1.6-10.9
			c0-21.1-17.1-38.1-38.1-38.1c-13.6,0-25.5,7.1-32.2,17.8c-4.3-24.2-25.4-42.5-50.8-42.5c-26.1,0-47.6,19.3-51.1,44.5
			c-2.9-1.2-6.1-1.8-9.5-1.8c-14.3,0-25.8,11.6-25.8,25.8c0,1.5,0.1,2.9,0.4,4.3c-9.6,5.5-16.1,15.9-16.1,27.7
			c0,6,1.7,11.7,4.6,16.5C778.2,665.2,782.1,661.3,786.8,658.6z"/>
		<path style="fill:#E8F0F6;" d="M802.7,685.3h141.4c9,0,17.1-3.7,22.9-9.7c4.7,3.6,10.6,5.7,16.9,5.7c9.3,0,17.6-4.5,22.7-11.5
			c-3.5-4.8-8.4-8.4-14.2-10.2c1-3.4,1.6-7.1,1.6-10.9c0-21.1-17.1-38.1-38.1-38.1c-13.6,0-25.5,7.1-32.2,17.8
			c-4.3-24.2-25.4-42.5-50.8-42.5c-26.1,0-47.6,19.3-51.1,44.5c-2.9-1.2-6.1-1.8-9.5-1.8c-14.3,0-25.8,11.6-25.8,25.8
			c0,1.5,0.1,2.9,0.4,4.3c-4.7,2.7-8.7,6.6-11.5,11.2C780.9,679.1,791.1,685.3,802.7,685.3z"/>
		<path style="fill:#A1D2F0;" d="M945.3,691H804c-20.1,0-36.5-16.4-36.5-36.5c0-12,6-23.2,15.8-30c0-0.7-0.1-1.3-0.1-2
			c0-16.7,13.6-30.3,30.3-30.3c2,0,4,0.2,6,0.6c5.9-25,28.5-43.2,54.6-43.2c24.1,0,45,15.2,52.8,37.2c7.9-8,18.7-12.5,30.2-12.5
			c23.5,0,42.6,19.1,42.6,42.6c0,2.7-0.3,5.4-0.8,8.1c11.4,5.3,18.7,16.7,18.7,29.5c0,17.9-14.6,32.5-32.5,32.5
			c-5.9,0-11.5-1.6-16.5-4.5C962.1,688.1,954,691,945.3,691z M813.5,601.3c-11.7,0-21.3,9.6-21.3,21.3c0,1.1,0.1,2.2,0.3,3.5
			c0.3,1.9-0.6,3.7-2.2,4.6c-8.5,4.9-13.8,14-13.8,23.8c0,15.1,12.3,27.5,27.5,27.5h141.4c7.5,0,14.4-2.9,19.7-8.3
			c1.6-1.6,4.1-1.8,5.9-0.4c4.1,3.2,9.1,4.8,14.2,4.8c13,0,23.5-10.6,23.5-23.5c0-10.3-6.6-19.3-16.4-22.4c-2.3-0.7-3.6-3.2-3-5.6
			c0.9-3.1,1.4-6.4,1.4-9.6c0-18.6-15.1-33.6-33.6-33.6c-11.6,0-22.2,5.9-28.4,15.7c-1,1.6-2.9,2.4-4.7,2c-1.8-0.4-3.2-1.8-3.6-3.6
			c-4-22.5-23.5-38.8-46.4-38.8c-23.4,0-43.4,17.4-46.6,40.6c-0.2,1.4-1,2.6-2.2,3.3c-1.2,0.7-2.6,0.8-3.9,0.3
			C818.8,601.8,816.2,601.3,813.5,601.3z"/>
	</g>
</g>
</svg>
